<?xml version="1.0" encoding="UTF-8"?>
<svg id="Layer_2" data-name="Layer 2" xmlns="http://www.w3.org/2000/svg" viewBox="0 0 301.3 312.28">
  <defs>
    <style>
      .cls-1 {
        fill: #fff;
      }
    </style>
  </defs>
  <g id="Layer_1-2" data-name="Layer 1">
    <g>
      <g>
        <path d="m146.56,312.16c-1.88-.25-3.79-.35-5.64-.45-1.26-.07-2.56-.14-3.84-.26-2.48-.22-4.99-.58-7.4-.92-.79-.11-1.59-.22-2.38-.33-3.63-.49-7.52-1.06-11.39-1.95-5.23-1.19-9.88-2.55-14.21-4.17-6.02-2.24-11.68-4.91-16.83-7.91-7.59-4.43-13.51-8.66-18.63-13.31-2.26-2.05-4.81-3.77-7.28-5.43-1.39-.93-2.82-1.9-4.19-2.91-7.92-5.87-14.45-11.56-19.96-17.39-6.3-6.67-11.89-13.92-16.6-21.55-3.8-6.16-7.15-13.17-10.24-21.46-2.11-5.64-3.76-11.4-4.9-17.11-.91-4.57-1.64-9.37-2.23-14.66-.15-1.35-.15-2.73-.15-4.06,0-2.03,0-4.12-.54-6.14v-7.05c.46-.54.41-1.08.36-1.65-.02-.19-.03-.38-.03-.57.07-7.55,1.26-14.83,2.29-20.34,1.47-7.87,3.96-15.62,7.59-23.7,2.89-6.41,6.53-12.58,11.13-18.87,5.12-6.99,11.25-13.19,17.1-18.95,1.36-1.34,2.43-3.01,3.48-4.63.57-.89,1.17-1.82,1.8-2.68,4.9-6.65,10.49-12.78,16.6-18.23,5.06-4.51,10.06-8.33,15.31-11.67,6.28-4,12.76-7.4,19.24-10.08,5.99-2.48,11.47-4.32,16.74-5.62,4.12-1.01,8.48-1.93,12.98-2.72,2.86-.5,5.79-.72,8.62-.93,2.86-.21,5.82-.43,8.69-.95.8-.14,1.61-.38,2.39-.6.57-.16,1.13-.33,1.7-.46.21-.05.57-.13.87-.13.55,0,.64.29.64.46,0,.29.15.56.28.82.18.35.37.72.2,1.12-.12.26-.32.4-.6.4-.18,0-.38-.05-.57-.11-.13-.04-.26-.07-.37-.09-.63-.07-1.29-.11-1.95-.11-3.73,0-7.32,1.18-10.79,2.31-2.88.94-6.62,2.19-10.37,3.58-4.78,1.77-9.88,3.98-16.04,6.95-5.7,2.74-11.52,6.09-17.8,10.23l-.57.37c-2.46,1.62-5,3.29-7.52,5.62,1.98-.4,3.6-1.11,5.17-1.79.52-.23,1.04-.45,1.55-.66,3.73-1.51,7.55-2.89,11.36-4.11,4.57-1.46,8.6-2.67,12.33-3.69,1.57-.43,3.2-.73,4.78-1.02.73-.13,1.46-.27,2.19-.41.06-.01.12-.03.18-.04.14-.04.28-.07.42-.07.27,0,.44.14.52.43.06.22.04.4-.05.54-.15.24-.48.3-.73.34-.07.01-.13.02-.18.04-1.38.36-2.8.68-4.17.98l-1.24.28c-4.62,1.04-9.32,2.38-14.37,4.1-2.8.95-5.6,2.07-8.31,3.14-2.38.94-4.84,1.92-7.28,2.79-6.65,2.35-11.65,6.6-17.12,12.25-6.54,6.77-12.2,14.01-16.82,21.52-4.6,7.47-8.37,15.26-11.22,23.14-2.9,8.02-4.86,15.48-6.02,22.81-.92,5.82-1.9,12.7-2.23,19.56-.28,5.84-.35,11.18-.21,16.33.17,6.2.75,12.27,1.72,18.04l.29,1.71c.65,3.9,1.32,7.94,2.29,11.83,1.48,5.96,2.85,10.47,4.42,14.62,2.23,5.84,4.45,10.89,6.8,15.42,3.52,6.79,7.33,12.9,11.65,18.66,5.54,7.41,10.51,12.92,15.65,17.34,1.08.93,2.16,1.87,3.23,2.81,4.69,4.09,9.54,8.32,14.77,11.88,8.43,5.74,16.85,10.12,25.75,13.4,5.31,1.96,10.92,3.54,17.14,4.85,4.24.89,7.54,1.3,10.7,1.34,1.3.02,2.63.16,3.91.3,1.34.15,2.73.3,4.09.3.17,0,.34,0,.51,0,5.19-.15,12.02-.48,18.88-1.67,6.95-1.21,12.93-2.68,18.27-4.49,7-2.38,13.68-5.24,19.86-8.52,7.05-3.74,12.7-7.17,17.77-10.79,8.51-6.09,15.73-12.67,22.08-20.11,4.93-5.79,9.3-12.03,12.99-18.57,3.02-5.34,5.59-10.99,7.65-16.77,2.27-6.38,4.11-13.27,5.64-21.07,1.73-8.82,2.44-18.46,2.16-29.45-.18-7.21-1.41-14.59-3.66-21.95-2.97-9.71-7.75-18.97-14.22-27.51-.97-1.28-2.36-1.77-3.47-2.05-1.75-.45-3.51-.99-5.21-1.51-2.81-.86-5.71-1.75-8.66-2.26-.49-.08-.96-.23-1.42-.36-.72-.21-1.45-.43-2.23-.43-.15,0-.31,0-.47.03-.53.06-.79.16-.88.31-.08.15-.02.41.18.83.84,1.71,1.97,3.18,3.41,4.88.27.32.55.64.83.96.79.91,1.6,1.85,2.33,2.85l.33.46-.49-.27c-4.27-2.34-8.04-4.56-10.96-7.96-.9-1.05-1.74-2.34-1.18-3.99.59-1.73,2.32-2.17,3.58-2.49.94-.24,1.93-.36,2.94-.36,2.71,0,5.33.87,7.31,1.63,3.17,1.21,6.35,2.88,9.72,5.09-1.44-1.85-3.17-3.42-5.11-5.11-4.3-3.75-9.26-6.69-15.15-8.97-.75-.29-1.56-.44-2.42-.44-.72,0-1.49.1-2.28.31-6.37,1.66-11.73,5.25-15.69,8.19-1.2.89-2.38,1.82-3.68,2.84-.63.5-2.32,1.82-2.32,1.82l.13-.4c1.04-3.06,2.67-4.93,4.13-6.37,3.28-3.22,7.33-5.46,12.38-6.84.49-.13.86-.26,1.2-.47.21-.13.39-.34.39-.44,0-.13-.05-.23-.16-.31-.1-.07-.24-.12-.39-.12-2.21-.02-4.42-.35-6.56-.67-1.38-.21-2.81-.42-4.22-.55-.09,0-.18-.01-.26-.01-1.13,0-1.81.69-2.59,1.48l-.12.13c-2.35,2.39-5.21,4.21-7.96,5.96-.94.6-1.89,1.2-2.82,1.83l-.14.1-.05-.17c-.34-1.22.15-2.04.79-3.03-1.73.23-3.17.95-4.57,1.65-.85.42-1.72.86-2.63,1.17l-.41.14.27-.34c2.03-2.5,4.79-4.04,7.45-5.53,1.11-.62,2.26-1.26,3.36-1.98-.19.05-.39.1-.58.15-.96.24-1.96.49-2.92.8-1.3.42-2.68.93-4.33,1.62-.95.4-1.87.82-2.93,1.32-.48.23-1.78.83-1.78.83l.08-.27c.48-1.58,1.61-2.09,2.61-2.53.36-.16.7-.31,1.01-.51.21-.13.46-.19.7-.24.21-.04.41-.09.58-.18.25-.13.64-.41.51-.75-.06-.16-.42-.37-.68-.39-.4-.04-.8-.06-1.2-.06-1.11,0-2.24.15-3.47.45l-.29.07.15-.26c.59-1.01,1.44-1.58,2.26-2.13.52-.35,1.01-.68,1.44-1.11-.49-.29-1.04-.41-1.58-.52-.71-.16-1.44-.32-2-.85-.08-.08-.2-.15-.32-.22-.3-.18-.67-.41-.54-.86.19-.64.93-.69,1.42-.72h.18c.12,0,.2,0,.27.05,1.17.63,2.44.93,4,.93,1.05,0,2.13-.13,3.17-.26,1.05-.13,2.14-.26,3.21-.26.4,0,.8.02,1.2.06.36.04.73.07,1.1.11,1.87.18,3.81.36,5.31,1.27,2.95,1.79,6.2,2.11,9.35,2.43,1.18.12,2.4.24,3.59.44,7.08,1.17,12.31,2.85,16.97,5.45,9.47,5.29,17.45,13.45,24.4,24.96,2.99,4.95,5.45,10.37,7.53,16.56,1.88,5.6,3.03,10.33,3.64,14.86,1.08,8.07,1.3,15.29.67,22.1-.11,1.18-.15,2.39-.19,3.56-.05,1.37-.09,2.79-.25,4.18-.63,5.53-1.43,10.44-2.46,15.01-.98,4.38-2.23,8.87-3.72,13.32-2.41,7.23-5.67,14.48-9.71,21.57-4.1,7.2-9.05,13.94-14.71,20.05-7.22,7.78-15.37,14.63-24.22,20.35-7.69,4.97-14.85,8.87-21.88,11.91-8.25,3.56-14.73,5.76-21.03,7.13-.9.2-1.8.41-2.7.63-2.36.57-4.8,1.15-7.29,1.36-.11,0-.23.09-.39.2-.03.02-.07.05-.1.07.33.11.67.17,1.03.17.53,0,1.05-.12,1.55-.24.4-.09.81-.19,1.22-.22,5.25-.4,10.87-1.28,17.7-2.75,8.54-1.84,16.06-4.04,22.98-6.75,7.12-2.78,12.93-5.45,18.28-8.4,3.09-1.7,5.74-4.07,8.3-6.36.54-.48,1.08-.97,1.63-1.45,7.67-6.72,14.68-14.6,21.43-24.09,6.55-9.21,12.18-19.04,16.74-29.22.79-1.75,1-3.81,1.22-5.8.05-.44.09-.89.15-1.32,1.39-11.49,1.91-23.61,1.53-36.04l-.09-3.25c-.17-6.18-.35-12.58-.99-18.84-.6-5.82-1.26-11.51-2.86-17.07-2.64-9.2-6.54-18.04-11.57-26.27-4.46-7.28-9.4-13.93-14.69-19.75-3.51-3.86-7.15-7.44-10.84-10.64-1.55-1.35-3.35-1.9-4.75-2.23l-2.25-.54c-4.06-.98-8.25-1.98-12.43-2.5-3.81-.47-7.75-.96-11.72-.96-2.67,0-5.08.22-7.37.68l-.73.15.65-.38c3.86-2.25,8.34-3.35,13.68-3.35.5,0,1,0,1.51.03,5.32.19,10.49,1.69,15.29,3.3-.06-.54-.44-.65-.87-.78-.23-.06-.46-.13-.64-.27-.27-.2-.56-.39-.85-.57-.31-.2-.62-.4-.92-.62-5.92-4.52-12.93-7.7-22.74-10.33-5.54-1.49-11.05-2.24-16.38-2.24-2,0-4.03.11-6.02.31-.24.02-.48.04-.72.04-.16,0-.32,0-.48-.03-.47-.07-.95-.1-1.41-.1-2.34,0-4.53.89-6.69,2.73-1.56,1.33-3.47,2.11-5.12,2.69-2.38.84-3.98,2.14-4.89,3.98-1.21,2.46-3.25,3.61-6.41,3.61h0c-.28,0-.51,0-.74,0-.24,0-.47,0-.71,0-.98,0-2.02-.08-3.07-.64l-.12-.07.08-.12c1.74-2.49,4.25-3.58,6.75-4.34-1.11-.38-2.2-.57-3.32-.57-1.81,0-3.68.49-6.07,1.59l-.28.13.11-.28c1.17-3.13,3.57-3.49,5.88-3.84.79-.12,1.6-.24,2.37-.47l-.33-.15c-1.47-.67-2.87-1.31-4.27-1.31-.99,0-1.91.32-2.82.98l-.18.13-.02-.22c-.09-.93.1-1.67.56-2.19.5-.56,1.29-.85,2.35-.88.56-.01,1.11-.03,1.67-.05.81-.03,1.62-.06,2.43-.06,1.52,0,2.75.11,3.88.35.38.08.78.12,1.18.12,1.36,0,2.68-.46,3.96-.9.68-.24,1.38-.48,2.09-.65,1.59-.39,3.14-.75,4.75-.8l14.8-.47s.14,0,.15,0c.2,0,.33-.03.44-.23-.84-.7-1.78-1.25-2.78-1.84-1.63-.96-3.33-1.96-4.73-3.69l-.38-.47.54.28c.62.32,1.19.61,1.73.88,1.11.55,2.07,1.03,2.97,1.61,3.92,2.54,8.44,3.39,12.82,4.23l.59.11c6.7,1.28,12.57,3.12,17.94,5.64.07.04.18.04.38.06.06,0,.12.01.19.02-5.51-4.96-10.94-10.51-12.32-18.71l-.11-.65.34.57c2.02,3.35,4.29,6.91,7.21,10.16,3.34,3.71,7.05,7.3,11.02,10.65,3.29,2.77,6.81,5.37,10.21,7.87,1.55,1.14,3.11,2.29,4.64,3.45,5.14,3.89,9.61,8.79,13.4,13.07,4.81,5.44,9.17,11.25,12.96,17.28,3.97,6.31,7.34,13.15,10.01,20.35,2.02,5.45,3.26,10.99,4.46,16.66.48,2.27.64,4.64.8,6.93.04.64.09,1.27.14,1.91,1.06,13.33,1.4,24.19,1.07,34.18-.05,1.62-.08,3.23-.11,4.85-.09,5.34-.19,10.87-1.25,16.25-.08.43-.07.87-.04,1.44,0,.2.02.42.02.64.78-.94,1.03-1.96,1.27-2.95.08-.32.16-.64.25-.93,1.8-5.73,3.21-11.96,4.57-20.19,1.15-6.94,1.27-13.95,1.24-19.89-.03-5.65-.19-12.34-1.17-19.11-.89-6.17-2.04-13.44-3.81-20.58-1.03-4.15-2.36-8.56-4.31-14.29-1.61-4.73-3.3-9.27-5.01-13.48-2.25-5.52-4.6-10.45-7.19-15.08-3.57-6.36-8.25-12.08-12.35-16.93-1.4-1.66-3.01-3.04-4.77-4.12l-.25-.15.28-.08c.34-.09.67-.14,1-.14,1.55,0,2.65,1.08,3.65,2.18,7.27,8.08,12.37,15.43,16.06,23.13,3.48,7.26,6.32,14.06,8.71,20.81,1.67,4.73,3.25,9.7,4.69,14.79,1.92,6.78,3.42,14.04,4.45,21.57.84,6.14,1.29,12.31,1.33,18.32.01,2.14-.03,4.31-.06,6.41-.03,1.68-.06,3.36-.07,5.04-.02,6.62-1.16,13.11-2.15,18.03-1.31,6.5-2.7,11.81-4.37,16.73-2.42,7.12-5.85,14.55-10.8,23.38-4.7,8.38-10.16,16.41-16.21,23.85-3.85,4.73-7.87,9.09-11.94,12.94-.06.06-.13.1-.21.15-.21.14-.39.25-.28.6,2.83-1.95,5.44-4.25,7.75-6.28,6.04-5.31,11.47-11.28,16.15-17.74,4.48-6.19,8.32-12.75,11.44-19.49,2.22-4.81,4.08-9.65,5.61-13.75,1.4-3.75,2.52-7.67,3.6-11.46l.7-2.43c1.1-3.81,2.24-7.76,3.03-11.7l.42-2.09c.82-4.07,1.67-8.28,2.28-12.47.5-3.39.81-6.85,1.11-10.19.19-2.07.38-4.22.61-6.32.27-2.43.23-4.95.18-7.38-.02-1.04-.04-2.08-.03-3.12.03-7.11-.84-14.17-1.8-21.38-.65-4.84-1.76-9.47-2.65-12.97-1.55-6.09-3.76-12.28-6.58-18.4-2.23-4.86-5.03-10.53-8.81-15.73-3.97-5.46-8.92-12.25-15.54-17.08-6.38-4.65-13.01-7.29-20.28-8.06-.56-.06-1-.09-1.39-.09-1.4,0-2.42.39-3.41,1.3-.9.83-1.94,1.25-3.08,1.25-1.06,0-2.17-.36-3.3-1.07-1.48-.93-2.48-1.93-3.47-3.44l-.24-.37.4.19c1.7.8,3.11,1.36,4.57,1.81.33.1.63.15.9.15.6,0,1.03-.26,1.31-.8.35-.68-.18-1.08-.7-1.46-.11-.08-.21-.16-.31-.24-.49-.41-1.06-.72-1.66-1.05-.26-.14-.52-.28-.77-.43l-.21-.12.22-.1c.62-.27,1.49-.43,2.38-.43,1.55,0,2.9.46,3.6,1.22,1.74,1.91,3.93,2.19,6.21,2.33,6.85.42,13.17,2.98,19.9,8.06.03.02.1.03.18.04.02,0,.04,0,.06,0,.18-.39-.06-.67-.32-.96-.05-.06-.1-.11-.15-.17-6.27-7.85-11.44-13.5-16.76-18.34-3.58-3.26-8.01-5.56-13.15-6.86-5.8-1.46-11.2-2.17-16.49-2.17h-.5c-4.78.04-8.24,1.37-10.89,4.17-2.65,2.8-6.07,4.16-10.43,4.16-1.2,0-2.46-.1-3.84-.31-.38-.06-.76-.11-1.15-.16-2.16-.29-4.39-.59-6.44-1.9l-.12-.08.09-.11c1.79-2.15,4.23-3.76,7.24-4.79,3.5-1.19,6.63-1.77,9.56-1.77,1.68,0,3.35.19,4.95.58.13.03.27.05.41.05.48,0,.93-.19,1.4-.39.42-.18.86-.37,1.33-.4,1.05-.08,2.09-.18,3.14-.28,2.42-.23,4.92-.47,7.39-.47.43,0,.87,0,1.3.02,5.46.2,11.25.74,16.59,3.34h0c.07,0,.16-.03.26-.07.04-.01.08-.03.12-.04-4.52-3.2-8.48-5.65-12.45-7.7-5.4-2.79-11.42-5.2-18.94-7.6-3.95-1.26-8.09-1.84-13.03-1.84-.99,0-1.98.02-2.98.07-2.27.1-4.56.72-6.58,1.27-2.37.65-3.12,2.69-3.92,4.85-1.77,4.81-4.22,7.86-7.72,9.63-1.19.6-2.37.89-3.6.89-.92,0-1.85-.16-2.84-.49l-.28-.09.26-.14c.66-.35,1.35-.67,2.03-.97,2.19-.99,4.26-1.93,5.41-4.16-1.53.83-3.25,1.69-5.19,1.69-.48,0-.97-.05-1.45-.16l-.22-.05.15-.16s.09-.1.13-.15c.09-.11.17-.21.28-.28.21-.14.5-.24.77-.33.69-.24,1.1-.41.94-.89-.1-.3-.33-.43-.73-.43-.34,0-.73.1-1.11.19-.15.04-.29.07-.42.1-1.32.27-2.33,1.07-3.37,2.66l-.11.17-.1-.17s-.05-.07-.07-.11c-.06-.09-.13-.18-.11-.28.39-1.66-.24-2.63-2.11-3.22-1.38-.44-2.11-1.35-2.17-2.69v-.18s.16.05.16.05c2.37.73,5.12,1.5,7.76,1.5s4.87-.75,6.91-2.29c-.12,0-.24,0-.36,0-1.24,0-2.51.27-3.73.52-1.27.27-2.58.54-3.91.54-.91,0-1.73-.13-2.53-.39l-.15-.05.08-.13c.46-.79,1.13-.92,1.73-1.04.34-.06.65-.13.91-.29.09-.06.19-.12.29-.18.53-.32,1.03-.63.91-1.2-.08-.36-.51-.41-1.11-.43-.11,0-.22-.01-.32-.02-.58-.05-1.16-.13-1.73-.21-.93-.13-1.88-.26-2.82-.26-1.1,0-2.02.17-2.9.55l-.24.1.08-.25c.54-1.8,1.27-2.17,3.97-3.52.84-.42,1.69-.48,2.49-.48h1.07c.52.01,1.07-.01,1.63-.16-.86-1.47-1.67-2.02-2.97-2.02-1.05,0-2.48.38-4.79,1.27l-.22.08.05-.23c.37-1.67,1.78-3.06,3.58-3.56.99-.27,2.02-.41,3.08-.41,1.68,0,3.44.33,5.52,1.04,2.17.74,3.83,1.51,5.22,2.44.79.53,1.69.77,2.83.77.27,0,.54-.01.81-.03,3.5-.27,6.7-.4,9.77-.4s5.91.13,8.72.4c.11.01.22.01.35.01,0,0,.54,0,.66,0-.6-.8-1.2-1.58-1.81-2.37-3.69-4.78-7.17-9.29-7.95-15.42l-.07-.55.3.47c.4.63.8,1.26,1.19,1.89.85,1.36,1.74,2.77,2.67,4.12,2.79,4.05,6.17,8.64,10.9,11.92,1.6,1.11,3.46,1.68,5.25,2.23,10.98,3.37,21.34,8.18,30.79,14.28.22.14.43.31.64.48.23.18.46.37.73.54-3.63-6.56-6.67-12.63-7.44-19.96l-.06-.61,2.57,4.63c1.58,2.85,3.08,5.57,4.6,8.29.53.95,1.06,1.9,1.59,2.86,3.16,5.69,6.42,11.57,10.34,16.88,1.78,2.42,3.93,4.62,6.02,6.75,1.26,1.28,2.55,2.61,3.76,3.98,4.08,4.62,8.09,9.73,11.9,15.18.63.9,1.27,1.8,2,2.82l.92,1.28c-.01-1.64-.34-3-.67-4.33-.13-.55-.27-1.1-.37-1.64-1.1-5.75-2.26-10.01-3.76-13.84-1.17-2.98-3.53-5.26-5.81-7.46-.48-.46-.96-.93-1.43-1.39-1.9-1.9-3.89-3.77-5.82-5.59-.86-.81-1.73-1.63-2.6-2.45l-.1-.09.1-.09c.4-.35.74-.52,1.05-.52s.52.16.69.28c5.49,4,10.76,8.01,15.15,13.16,3.88,4.55,5.62,9.85,7.03,16.41.66,3.05,1.33,6.33,1.78,9.63.27,2.02.58,4.37.8,6.69.15,1.64.95,2.94,1.72,4.2.35.58.72,1.18,1.02,1.81,3.43,7.19,6.09,13.97,8.11,20.72,1.76,5.88,3.1,12.18,3.99,18.73,1.29,9.54,1.62,19.49.99,30.42-.41,7.11-1.37,14.11-2.16,19.4-.95,6.38-2.52,12.58-4.04,18.39-2.85,10.89-6.01,20.36-9.64,28.96-4.26,10.08-9.92,19.44-16.82,27.83-4.73,5.74-9.45,10.54-14.45,14.69-4.9,4.06-10.26,7.62-15.43,11.06l-1.67,1.11c-1.61,1.07-3.23,2.21-4.79,3.31-2.66,1.87-5.42,3.81-8.27,5.52-5.43,3.25-11.36,6.17-18.11,8.92-5.35,2.18-11.09,4.02-17.56,5.64-4.48,1.12-8.9,1.82-14.2,2.61-2.32.34-4.68.57-6.97.79-2.14.21-4.35.42-6.52.73h0s-13.66,0-13.66,0Zm-73.77-25.77c1.24.99,2.53,2.01,3.85,2.92,6.28,4.35,12.06,7.71,17.67,10.25,6.71,3.04,12.8,5.18,18.64,6.56,4.19.99,8.51,1.84,12.84,2.53,4.66.74,9.56,1.27,14.96,1.62,3.5.23,7.08.33,10.95.33,2.84,0,5.75-.06,8.89-.18,4.93-.19,9.75-.78,14.27-1.37,5.5-.71,11.38-2.01,18-3.96,9.93-2.93,19.25-6.87,27.71-11.72l.46-.26c.58-.33,1.15-.65,1.7-1.01.23-.15.48-.27.72-.4.17-.09.34-.17.49-.26-24.35,9.2-48.4,13.87-71.51,13.87-27.41,0-54.45-6.57-80.38-19.53.25.2.5.39.75.59Zm-3.59-224.67c-.71.37-1.39.73-2.08,1.1-7.77,4.25-15.42,9.37-22.75,15.22-.31.25-.62.49-.93.73-1.51,1.17-3.08,2.38-4.13,4.11-3.59,5.91-6.97,12.35-10.64,20.27-2.9,6.26-5.43,12.62-7.51,18.93-2.23,6.74-3.71,12.34-4.67,17.6-.21,1.17-.44,2.33-.68,3.5-.56,2.81-1.14,5.71-1.4,8.61-.19,2.17-.36,4.34-.54,6.52-.15,1.88-.3,3.76-.46,5.64-.53,6.23-.11,12.43.37,18.24.48,5.76,1.28,10.91,2.46,15.74l.26,1.05c1.03,4.24,2.1,8.62,3.56,12.77,2.88,8.15,7.05,15.88,11.08,23.36l.26.49c3.79,7.04,7.96,13.75,12.37,19.95,3.8,5.33,7.73,10.28,11.68,14.72l.55.62c2.29,2.58,4.67,5.25,7.49,7.35,3.41,2.53,7.24,4.52,10.94,6.44l1.47.77c5.05,2.64,10.56,5.08,17.34,7.69,7.01,2.7,14.29,4.93,21.65,6.64,4.73,1.1,9.63,1.85,14.36,2.57,1.1.17,2.2.34,3.3.51.95.15,1.94.16,2.9.17.78,0,1.58.02,2.37.1-.91-.62-1.91-.69-2.96-.76-.54-.04-1.1-.08-1.64-.2-3.76-.86-8.02-1.83-12.07-3.12-4.94-1.57-9.98-3.59-14.98-5.98-5.98-2.86-11.88-6.35-17.55-10.37-2.75-1.95-5.35-4.17-7.87-6.32-1.61-1.38-3.28-2.8-4.97-4.14-5.92-4.69-11.48-10.32-17-17.23-5.11-6.39-9.69-13.39-13.61-20.78-4.03-7.61-7.34-15.54-9.82-23.58-1.82-5.9-3.3-12.25-4.53-19.41-1.19-6.95-1.91-14.21-2.14-21.56-.15-4.73-.06-9.76.27-15.37.43-7.35,1.14-13.83,2.15-19.8,1.09-6.41,2.71-12.99,4.82-19.56,2.62-8.17,6.05-15.98,10.19-23.22,6.22-10.87,14.1-20.86,23.42-29.68.06-.06.14-.11.22-.16.27-.18.44-.32.33-.62l-.9.47Zm-33.63,24.41c-1.9,1.55-3.53,3.39-5.11,5.17l-.75.84c-5.19,5.79-9.75,12.06-13.57,18.65-3.32,5.72-5.86,11.73-7.91,16.86-1.77,4.43-2.91,9.15-3.83,13.23-.91,4-1.39,8.04-1.84,12.17-.75,6.82-1.02,12.96-.84,18.77.15,4.66.33,9.21.89,13.71.52,4.18,1.02,7.95,1.87,11.7,1.38,6.13,2.82,11.14,4.53,15.76,1.57,4.23,3.5,9.18,5.95,13.86,3.88,7.4,8.51,14.47,13.78,21.02,6.32,7.87,14,15.32,23.47,22.77.87.69,1.82,1.31,2.73,1.92.25.17.5.33.74.49-.78-1.1-1.66-2.08-2.52-3.04-.35-.39-.7-.79-1.04-1.19-4.18-4.87-7.98-9.79-11.3-14.64-8.22-12.01-14.58-24.97-19.2-34.92-3.05-6.57-4.9-13.61-6.39-19.69-1.33-5.45-2.25-11.3-2.87-18.43-.72-8.18-.62-16.61.28-25.06.87-8.15,2.09-15.35,3.74-22.01,1.08-4.37,2.38-8.6,3.99-13.59,1.54-4.78,3.47-9.79,6.06-15.79,2.39-5.53,5.22-11.27,9.14-18.57Zm96.67-60.21c-17.41,1.76-34.32,7.03-50.27,15.65-12.21,6.61-33.39,25.3-38.66,35.6.1-.02.18-.05.23-.09,6.6-5.58,13.87-10.15,20.74-14.25,1.55-.92,3.19-1.74,4.78-2.53,2.64-1.31,5.38-2.67,7.74-4.56.68-.55,1.35-1.11,2.02-1.67,1.28-1.08,2.61-2.19,4-3.17,8.07-5.66,14.92-9.85,21.55-13.18,9.66-4.85,17.24-8.04,24.6-10.33.21-.07.42-.13.64-.19.94-.26,1.9-.53,2.62-1.27Z"/>
        <path class="cls-1" d="m190.51,1.07c1.28,2.01,2.51,4.05,3.86,6.01,3.09,4.48,6.37,8.79,10.93,11.95,1.62,1.12,3.48,1.69,5.29,2.25,10.91,3.35,21.17,8.08,30.76,14.26.57.37,1.04.89,1.76,1.23-3.48-6.27-6.83-12.57-7.64-20.3,2.44,4.39,4.64,8.4,6.87,12.38,3.76,6.72,7.37,13.56,11.94,19.75,2.85,3.88,6.57,7.11,9.78,10.73,4.26,4.82,8.21,9.9,11.89,15.17.94,1.35,1.91,2.68,3.14,4.41.06-2.53-.66-4.43-1.03-6.38-.9-4.72-2.02-9.41-3.76-13.86-1.43-3.63-4.55-6.18-7.26-8.9-2.73-2.73-5.59-5.35-8.42-8.04.42-.36.73-.48.97-.48.28,0,.47.15.65.28,5.41,3.94,10.72,7.98,15.1,13.12,4.05,4.75,5.73,10.43,7.01,16.36.69,3.19,1.34,6.39,1.77,9.62.3,2.23.59,4.47.8,6.69.22,2.43,1.81,4.07,2.75,6.05,3.21,6.71,5.97,13.57,8.1,20.71,1.84,6.14,3.13,12.41,3.99,18.71,1.37,10.07,1.58,20.21.99,30.4-.37,6.52-1.2,12.97-2.16,19.39-.92,6.19-2.45,12.3-4.04,18.38-2.59,9.86-5.67,19.56-9.63,28.94-4.24,10.04-9.86,19.36-16.8,27.8-4.36,5.3-9.11,10.26-14.43,14.67-5.41,4.48-11.26,8.28-17.09,12.16-4.37,2.91-8.54,6.12-13.05,8.82-5.79,3.46-11.85,6.37-18.1,8.91-5.71,2.32-11.59,4.15-17.55,5.64-4.65,1.17-9.42,1.9-14.19,2.61-4.48.67-9,.88-13.48,1.52h-13.66c-3.14-.41-6.32-.43-9.47-.71-3.28-.3-6.53-.81-9.78-1.25-3.81-.52-7.62-1.09-11.38-1.94-4.82-1.1-9.57-2.44-14.19-4.16-5.82-2.17-11.44-4.77-16.82-7.9-6.62-3.86-12.94-8.14-18.61-13.29-3.53-3.21-7.68-5.53-11.48-8.35-7.11-5.27-13.84-10.92-19.95-17.38-6.27-6.63-11.8-13.78-16.58-21.53-4.18-6.78-7.45-13.99-10.23-21.44-2.08-5.57-3.73-11.29-4.89-17.09-.96-4.82-1.68-9.73-2.23-14.65-.38-3.41.2-6.86-.69-10.21v-7.01c.62-.66.33-1.48.34-2.22.07-6.85,1.03-13.58,2.29-20.32,1.54-8.23,4.17-16.09,7.58-23.67,3.01-6.67,6.78-12.92,11.12-18.85,5.06-6.91,11.01-12.95,17.09-18.93,2.12-2.08,3.5-4.9,5.29-7.33,4.9-6.64,10.41-12.71,16.58-18.21,4.81-4.29,9.87-8.2,15.29-11.66,6.12-3.9,12.51-7.29,19.22-10.07,5.45-2.26,11.01-4.21,16.72-5.61,4.28-1.05,8.61-1.95,12.97-2.72,5.75-1.01,11.59-.86,17.31-1.88,1.39-.25,2.72-.74,4.1-1.07.23-.05.56-.13.84-.13s.51.08.52.34c.02.73.76,1.27.49,1.89-.11.25-.28.32-.49.32-.29,0-.64-.16-.92-.19-.66-.08-1.31-.11-1.96-.11-3.76,0-7.32,1.17-10.86,2.33-3.46,1.13-6.92,2.3-10.34,3.57-5.48,2.03-10.8,4.42-16.06,6.95-6.18,2.98-12.09,6.47-17.81,10.24-2.77,1.83-5.6,3.63-8.42,6.3,2.88-.5,4.99-1.66,7.17-2.54,3.74-1.51,7.52-2.88,11.35-4.1,4.08-1.31,8.19-2.56,12.32-3.69,2.28-.63,4.64-.96,6.96-1.43.18-.04.4-.12.58-.12s.33.08.4.34c.19.7-.55.68-.87.77-1.79.47-3.61.85-5.41,1.26-4.87,1.1-9.67,2.5-14.39,4.11-5.26,1.79-10.36,4.08-15.59,5.93-7.01,2.48-12.19,7.14-17.17,12.28-6.37,6.59-12.04,13.73-16.84,21.54-4.52,7.35-8.29,15.04-11.23,23.17-2.69,7.44-4.8,15.05-6.02,22.83-1.02,6.47-1.91,12.98-2.23,19.57-.26,5.45-.36,10.9-.21,16.34.17,6.04.71,12.06,1.72,18.05.76,4.54,1.47,9.09,2.58,13.54,1.23,4.94,2.61,9.86,4.43,14.63,2,5.26,4.21,10.43,6.81,15.43,3.39,6.54,7.24,12.77,11.66,18.68,4.7,6.27,9.73,12.24,15.67,17.36,5.87,5.06,11.59,10.32,18.02,14.7,8.06,5.48,16.59,10.03,25.78,13.41,5.61,2.07,11.34,3.63,17.16,4.85,3.51.74,7.09,1.3,10.73,1.34,2.67.03,5.34.6,8.01.6.17,0,.34,0,.52,0,6.32-.18,12.62-.58,18.9-1.67,6.22-1.08,12.34-2.47,18.29-4.49,6.83-2.32,13.48-5.13,19.88-8.52,6.15-3.26,12.12-6.76,17.78-10.8,8.16-5.84,15.58-12.47,22.1-20.13,4.94-5.8,9.27-11.98,13-18.59,3.03-5.36,5.59-10.98,7.66-16.79,2.44-6.88,4.23-13.9,5.64-21.09,1.92-9.78,2.41-19.6,2.16-29.48-.19-7.46-1.47-14.81-3.66-21.98-3.07-10.06-7.9-19.18-14.24-27.55-.94-1.24-2.25-1.77-3.54-2.1-4.64-1.19-9.13-2.95-13.88-3.77-1.23-.21-2.38-.8-3.68-.8-.16,0-.32,0-.48.03-1.01.12-1.27.36-.8,1.32.9,1.81,2.13,3.38,3.43,4.9,1.06,1.25,2.17,2.46,3.16,3.8-3.99-2.19-7.92-4.44-10.92-7.94-.95-1.1-1.68-2.34-1.16-3.87.55-1.63,2.12-2.06,3.5-2.41.98-.25,1.95-.35,2.91-.35,2.5,0,4.93.73,7.26,1.62,3.62,1.38,7.03,3.29,10.3,5.48-1.57-2.18-3.55-3.95-5.56-5.7-4.51-3.93-9.62-6.84-15.18-9-.81-.31-1.64-.45-2.46-.45-.78,0-1.56.12-2.31.31-5.86,1.53-10.93,4.64-15.73,8.21-1.78,1.33-3.51,2.73-5.67,4.41.95-2.8,2.42-4.66,4.1-6.32,3.46-3.4,7.67-5.54,12.33-6.81.44-.12.86-.25,1.24-.49.2-.12.45-.36.45-.55,0-.36-.33-.55-.67-.55-3.63-.03-7.17-.9-10.77-1.22-.09,0-.19-.01-.27-.01-1.25,0-1.98.81-2.8,1.65-3.13,3.18-7.04,5.27-10.77,7.77-.35-1.25.21-2.06.92-3.15-2.96.3-5.03,2.03-7.49,2.86,3.01-3.71,7.5-5.22,11.39-7.9-1.41.37-2.84.69-4.22,1.14-1.47.47-2.91,1.03-4.34,1.62-1.4.58-2.76,1.25-4.46,2.03.63-2.06,2.36-2.21,3.57-2.97.37-.23.89-.2,1.28-.41.32-.17.73-.49.57-.9-.09-.23-.5-.45-.79-.47-.4-.04-.8-.06-1.21-.06-1.1,0-2.23.14-3.5.46.97-1.66,2.63-2.09,3.79-3.33-1.17-.78-2.7-.5-3.69-1.44-.31-.3-.97-.44-.82-.96.16-.54.78-.6,1.31-.63.05,0,.11,0,.17,0,.08,0,.15,0,.21.04,1.34.72,2.7.94,4.06.94,2.12,0,4.26-.53,6.38-.53.4,0,.79.02,1.18.06,2.19.24,4.58.29,6.36,1.37,4.08,2.48,8.62,2.16,12.98,2.88,5.92.98,11.64,2.49,16.93,5.44,10.58,5.91,18.2,14.72,24.35,24.91,3.14,5.2,5.58,10.74,7.52,16.53,1.63,4.87,2.96,9.8,3.64,14.84.98,7.31,1.35,14.69.67,22.07-.24,2.57-.15,5.15-.44,7.74-.57,5.05-1.34,10.04-2.46,15-1.01,4.5-2.25,8.93-3.71,13.31-2.5,7.52-5.78,14.67-9.7,21.55-4.12,7.24-9.04,13.93-14.69,20.03-7.2,7.77-15.27,14.56-24.2,20.33-7,4.52-14.23,8.6-21.87,11.9-6.8,2.94-13.72,5.54-21.01,7.12-3.32.72-6.57,1.7-9.98,1.99-.22.02-.42.23-.76.42.46.2.89.27,1.31.27.98,0,1.88-.39,2.78-.46,5.97-.46,11.89-1.49,17.72-2.75,7.81-1.68,15.51-3.83,23-6.75,6.28-2.45,12.4-5.16,18.3-8.41,3.75-2.07,6.78-5.04,9.95-7.82,8.15-7.14,15.19-15.32,21.45-24.12,6.53-9.18,12.15-18.95,16.76-29.24.97-2.16,1.08-4.75,1.37-7.16,1.45-11.98,1.9-24.02,1.54-36.05-.22-7.37-.33-14.75-1.08-22.1-.59-5.76-1.27-11.54-2.86-17.09-2.66-9.27-6.53-18.04-11.59-26.3-4.31-7.04-9.17-13.67-14.71-19.77-3.4-3.74-7.01-7.32-10.85-10.65-1.44-1.25-3.1-1.86-4.8-2.26-4.87-1.15-9.74-2.43-14.69-3.04-3.89-.48-7.81-.96-11.74-.96-2.46,0-4.93.19-7.39.68,4.24-2.47,8.85-3.33,13.62-3.33.5,0,1,0,1.5.03,5.31.19,10.38,1.65,15.43,3.35,0-1.16-1.04-.93-1.57-1.32-.57-.42-1.2-.76-1.76-1.19-6.8-5.19-14.59-8.16-22.78-10.35-5.43-1.46-10.89-2.25-16.41-2.25-2,0-4.01.1-6.03.31-.23.02-.47.04-.7.04-.16,0-.31,0-.46-.03-.49-.07-.96-.11-1.42-.11-2.56,0-4.77,1.06-6.77,2.76-1.49,1.27-3.27,2.03-5.08,2.67-2.17.76-3.95,1.99-4.96,4.04-1.32,2.68-3.55,3.54-6.3,3.54h-.02s-.02,0-.03,0c-.47,0-.94.02-1.41.02-1,0-2.01-.09-3.01-.63,1.66-2.38,4.06-3.53,7.05-4.4-1.3-.49-2.53-.7-3.72-.7-2.09,0-4.06.65-6.12,1.6,1.59-4.25,5.37-3.27,8.48-4.33-1.72-.77-3.31-1.61-4.95-1.61-.94,0-1.9.28-2.89,1-.18-1.77.7-2.89,2.79-2.93,1.36-.03,2.73-.11,4.09-.11,1.29,0,2.57.07,3.86.34.41.09.81.12,1.21.12,2.11,0,4.05-1.06,6.07-1.56,1.56-.39,3.11-.75,4.72-.8,4.93-.16,9.86-.31,14.8-.47,0,0,.02,0,.03,0,.06,0,.12,0,.18,0,.19,0,.38-.04.53-.39-2.25-1.9-5.3-2.78-7.57-5.57,1.86.97,3.35,1.61,4.69,2.48,4.11,2.66,8.77,3.46,13.45,4.36,6.18,1.18,12.19,2.95,17.91,5.63.16.07.36.05,1,.13-6.02-5.39-11.23-10.91-12.57-18.9,2.15,3.58,4.41,7.04,7.23,10.18,3.44,3.82,7.12,7.36,11.03,10.66,4.76,4.02,9.89,7.57,14.86,11.33,4.97,3.76,9.23,8.36,13.38,13.06,4.79,5.42,9.11,11.17,12.95,17.26,4.04,6.41,7.35,13.2,10,20.33,2.01,5.42,3.27,11.02,4.45,16.64.61,2.88.7,5.88.94,8.83.91,11.37,1.45,22.77,1.07,34.17-.24,7.03.01,14.11-1.36,21.08-.13.67-.02,1.4-.02,2.43,1.26-1.35,1.36-2.9,1.76-4.17,2.07-6.6,3.44-13.36,4.57-20.2,1.09-6.62,1.28-13.27,1.24-19.91-.03-6.38-.25-12.76-1.17-19.13-1-6.93-2.14-13.82-3.81-20.59-1.19-4.81-2.71-9.58-4.32-14.3-1.55-4.55-3.21-9.05-5.02-13.48-2.1-5.15-4.47-10.22-7.2-15.09-3.44-6.14-7.84-11.6-12.37-16.95-1.37-1.61-2.95-3.01-4.8-4.14.34-.09.66-.14.96-.14,1.54,0,2.61,1.09,3.55,2.14,6.31,7.02,11.94,14.53,16.04,23.1,3.25,6.79,6.19,13.69,8.71,20.8,1.73,4.88,3.28,9.81,4.69,14.78,2,7.07,3.45,14.28,4.45,21.55.83,6.06,1.29,12.16,1.33,18.31.02,3.82-.12,7.64-.13,11.45-.02,6.07-.95,12.05-2.15,18-1.14,5.66-2.51,11.24-4.36,16.71-2.77,8.17-6.59,15.86-10.79,23.36-4.71,8.4-10.11,16.36-16.2,23.84-3.71,4.56-7.66,8.89-11.93,12.93-.24.23-.78.31-.47,1.04,2.83-1.94,5.37-4.16,7.89-6.38,6.05-5.31,11.46-11.25,16.17-17.76,4.43-6.13,8.27-12.61,11.45-19.51,2.08-4.51,3.89-9.12,5.62-13.76,1.43-3.83,2.55-7.78,3.68-11.71,1.32-4.61,2.73-9.21,3.66-13.9.97-4.84,1.98-9.67,2.7-14.57.81-5.49,1.11-11.02,1.73-16.52.39-3.46.13-7,.15-10.51.03-7.19-.85-14.28-1.81-21.4-.59-4.41-1.56-8.73-2.65-12.98-1.61-6.32-3.85-12.47-6.59-18.43-2.53-5.5-5.26-10.86-8.83-15.76-4.56-6.26-9.19-12.46-15.57-17.1-6.1-4.45-12.77-7.28-20.34-8.08-.5-.05-.96-.09-1.4-.09-1.29,0-2.37.3-3.49,1.33-.91.83-1.93,1.22-3,1.22s-2.16-.37-3.23-1.05c-1.27-.8-2.35-1.74-3.43-3.4,1.76.83,3.15,1.37,4.59,1.81.33.1.64.16.93.16.6,0,1.1-.25,1.42-.87.49-.93-.5-1.4-1.03-1.85-.72-.6-1.61-1-2.45-1.49.61-.27,1.46-.42,2.33-.42,1.34,0,2.75.36,3.5,1.18,1.79,1.97,4.01,2.23,6.29,2.37,7.53.46,13.94,3.59,19.83,8.04.09.07.24.05.38.08.35-.61-.16-.99-.44-1.34-5.19-6.49-10.62-12.76-16.77-18.36-3.77-3.43-8.28-5.65-13.21-6.89-5.42-1.37-10.92-2.18-16.52-2.18-.17,0-.33,0-.5,0-4.17.04-7.93.99-10.98,4.21-2.91,3.08-6.53,4.12-10.34,4.12-1.26,0-2.54-.11-3.82-.31-2.49-.37-5.15-.52-7.54-2.04,1.89-2.27,4.36-3.79,7.18-4.75,3.13-1.07,6.3-1.76,9.52-1.76,1.63,0,3.27.18,4.92.57.15.04.29.05.44.05.96,0,1.79-.72,2.74-.79,3.5-.28,7-.76,10.51-.76.43,0,.87,0,1.3.02,5.69.21,11.31.79,16.54,3.33.02,0,.04.01.07.01.13,0,.34-.11.66-.2-4.15-2.95-8.29-5.6-12.67-7.86-6.08-3.14-12.43-5.52-18.96-7.6-4.35-1.38-8.68-1.85-13.07-1.85-.99,0-1.99.02-2.98.07-2.22.09-4.45.68-6.61,1.27-2.44.66-3.22,2.79-4.01,4.95-1.47,4-3.64,7.52-7.65,9.54-1.15.58-2.32.88-3.54.88-.9,0-1.83-.16-2.8-.49,2.85-1.52,6.19-2.25,7.66-5.54-1.74.95-3.48,1.86-5.47,1.86-.46,0-.93-.05-1.42-.15.15-.16.25-.31.39-.4.65-.43,2.07-.47,1.76-1.37-.13-.39-.46-.52-.85-.52-.49,0-1.08.19-1.56.29-1.56.32-2.56,1.36-3.45,2.72-.07-.12-.18-.22-.17-.3.45-1.89-.46-2.82-2.19-3.37-1.1-.35-2.02-1.07-2.09-2.58,2.64.81,5.25,1.51,7.8,1.51s4.91-.66,7.25-2.52c-.23-.02-.46-.03-.69-.03-2.53,0-5.03,1.07-7.64,1.07-.82,0-1.65-.1-2.49-.38.68-1.17,1.84-.79,2.6-1.29.6-.39,1.42-.73,1.25-1.51-.12-.58-.95-.5-1.54-.55-1.52-.13-3.04-.47-4.57-.47-.98,0-1.96.14-2.95.56.52-1.72,1.13-2.05,3.91-3.45.8-.4,1.62-.46,2.44-.46.36,0,.71.01,1.07.01.61,0,1.22-.03,1.81-.23-.85-1.5-1.7-2.22-3.16-2.22-1.14,0-2.66.44-4.84,1.28.36-1.61,1.74-2.99,3.49-3.47,1.03-.28,2.04-.41,3.05-.41,1.86,0,3.68.42,5.48,1.03,1.81.62,3.59,1.36,5.19,2.43.92.61,1.89.8,2.9.8.27,0,.54-.01.82-.03,3.25-.25,6.51-.4,9.76-.4,2.9,0,5.81.12,8.71.4.12.01.23.01.36.01.23,0,.51-.01.91-.01-4.2-5.64-8.97-10.72-9.88-17.92m-57.98,24.69c-17.96,1.77-34.75,7.1-50.63,15.7-12.82,6.93-33.91,25.9-38.84,35.9.22-.07.42-.08.55-.19,6.43-5.44,13.51-9.93,20.73-14.24,4.13-2.46,8.74-4.07,12.53-7.1,2.01-1.61,3.92-3.36,6.02-4.84,6.9-4.84,13.98-9.38,21.53-13.17,7.97-4,16.05-7.66,24.58-10.33,1.2-.38,2.61-.58,3.53-1.73m5.73,277.54c-1.52-1.32-3.35-.88-5.01-1.26-4.05-.93-8.1-1.86-12.06-3.12-5.13-1.63-10.1-3.65-14.96-5.97-6.15-2.95-11.97-6.42-17.53-10.36-4.52-3.2-8.51-7.04-12.83-10.46-6.38-5.05-11.93-10.9-16.97-17.21-5.18-6.48-9.69-13.4-13.59-20.77-4.01-7.57-7.3-15.42-9.82-23.56-1.96-6.34-3.4-12.82-4.52-19.39-1.22-7.15-1.91-14.32-2.14-21.54-.16-5.12-.03-10.23.27-15.36.39-6.64,1.04-13.25,2.15-19.79,1.12-6.61,2.76-13.13,4.82-19.54,2.6-8.1,5.97-15.84,10.18-23.2,6.31-11.03,14.15-20.9,23.4-29.65.25-.24.85-.4.52-1.05-1.07.56-2.09,1.08-3.1,1.63-8.04,4.4-15.61,9.52-22.77,15.23-1.81,1.45-3.81,2.77-5.09,4.88-3.97,6.54-7.42,13.34-10.65,20.28-2.87,6.18-5.39,12.5-7.52,18.94-1.9,5.76-3.58,11.63-4.67,17.62-.73,4.03-1.72,8.03-2.08,12.12-.35,4.05-.65,8.11-1,12.16-.52,6.12-.13,12.22.37,18.26.44,5.26,1.19,10.55,2.46,15.76,1.14,4.66,2.23,9.34,3.82,13.84,2.94,8.33,7.17,16.11,11.35,23.87,3.72,6.9,7.83,13.57,12.38,19.96,3.65,5.12,7.52,10.06,11.69,14.73,2.5,2.81,5,5.71,8.05,7.98,3.86,2.87,8.18,5,12.43,7.22,5.62,2.93,11.43,5.42,17.35,7.7,7.07,2.72,14.31,4.94,21.66,6.65,5.81,1.35,11.76,2.15,17.67,3.08,1.88.3,3.84.06,5.73.33M35.96,85.65c-2.41,1.86-4.35,4.16-6.35,6.4-5.16,5.76-9.69,11.96-13.58,18.67-3.14,5.41-5.61,11.1-7.92,16.87-1.71,4.28-2.83,8.78-3.84,13.25-.9,3.98-1.4,8.09-1.84,12.18-.69,6.26-1.04,12.52-.84,18.79.14,4.57.32,9.15.89,13.73.49,3.93,1.01,7.88,1.87,11.71,1.2,5.33,2.62,10.62,4.53,15.77,1.75,4.73,3.63,9.43,5.96,13.87,3.9,7.44,8.5,14.45,13.79,21.04,6.9,8.59,14.87,16.01,23.49,22.79,1.28,1.01,2.68,1.86,4.03,2.79-1.17-1.79-2.61-3.24-3.94-4.79-4.02-4.68-7.81-9.55-11.29-14.63-7.53-11-13.59-22.84-19.19-34.9-2.92-6.28-4.73-12.93-6.38-19.67-1.49-6.08-2.33-12.25-2.87-18.42-.73-8.32-.61-16.69.28-25.03.79-7.41,1.95-14.75,3.74-21.99,1.13-4.59,2.53-9.09,3.98-13.58,1.73-5.38,3.82-10.6,6.06-15.78,2.82-6.51,6.04-12.82,9.42-19.1m115.73,225.08c2.97,0,5.93-.07,8.9-.18,4.8-.19,9.55-.75,14.28-1.37,6.09-.79,12.1-2.22,18.02-3.96,9.69-2.85,18.97-6.7,27.74-11.73.73-.42,1.47-.82,2.17-1.28.64-.42,1.45-.65,1.72-1.11-24.19,9.22-48.23,14.1-72.09,14.1-27.39,0-54.54-6.43-81.45-20.08,1.86,1.44,3.67,2.96,5.6,4.3,5.62,3.89,11.45,7.43,17.69,10.26,6.03,2.73,12.2,5.04,18.66,6.57,4.25,1,8.52,1.84,12.85,2.53,4.98.79,9.98,1.3,14.98,1.62,3.64.23,7.29.33,10.95.33M190.13,0l.14,1.1c.79,6.17,4.28,10.69,7.98,15.48.55.72,1.11,1.44,1.66,2.17-.03,0-.06,0-.09,0-.12,0-.23,0-.32,0-.12,0-.23,0-.34-.01-2.78-.26-5.72-.4-8.74-.4s-6.28.13-9.78.4c-.27.02-.54.03-.8.03-1.12,0-1.99-.24-2.76-.75-1.4-.94-3.07-1.72-5.25-2.46-2.1-.71-3.86-1.04-5.56-1.04-1.07,0-2.12.14-3.11.42-1.85.51-3.29,1.95-3.67,3.66l-.1.46.44-.17c2.29-.88,3.71-1.26,4.75-1.26,1.2,0,1.98.5,2.78,1.82-.49.11-.97.13-1.43.13-.18,0-.35,0-.53,0-.18,0-.36,0-.54,0-.82,0-1.69.06-2.55.49-2.74,1.38-3.48,1.75-4.04,3.6l-.15.51.49-.21c.87-.37,1.77-.54,2.85-.54.93,0,1.89.13,2.81.26.57.08,1.16.16,1.74.21.1,0,.21.01.32.02.55.03.94.07.99.34.1.45-.26.7-.85,1.06-.1.06-.2.12-.29.18-.24.15-.54.21-.87.28-.62.12-1.33.26-1.82,1.1l-.16.27.29.1c.81.26,1.65.39,2.57.39,1.34,0,2.66-.28,3.93-.55,1.27-.27,2.47-.52,3.69-.52-1.94,1.38-4.09,2.05-6.54,2.05-2.62,0-5.36-.77-7.73-1.5l-.34-.1.02.35c.07,1.4.83,2.35,2.26,2.81,1.79.57,2.4,1.49,2.02,3.08-.04.16.05.29.13.39.02.03.05.06.07.1l.2.35.22-.34c1.02-1.56,2.01-2.34,3.29-2.61.13-.03.28-.06.42-.1.37-.09.76-.19,1.09-.19.44,0,.56.18.61.35.11.33-.1.47-.86.73-.28.1-.57.2-.8.35-.13.08-.22.19-.31.3-.04.05-.08.09-.12.14l-.3.32.43.09c.49.11.98.16,1.47.16,1.81,0,3.43-.74,4.87-1.5-1.16,1.93-3.11,2.81-5.15,3.74-.67.3-1.37.62-2.03.97l-.51.27.55.18c1.01.34,1.95.5,2.88.5,1.25,0,2.45-.3,3.66-.91,3.53-1.78,6-4.86,7.77-9.68.79-2.15,1.53-4.17,3.84-4.8,2.01-.55,4.3-1.17,6.56-1.26,1.05-.04,2.02-.07,2.97-.07,4.93,0,9.06.58,13,1.84,7.51,2.39,13.52,4.8,18.92,7.59,3.91,2.02,7.81,4.42,12.24,7.55-.05.02-.09.03-.11.03-5.32-2.6-11.13-3.15-16.6-3.35-.44-.02-.87-.02-1.31-.02-2.48,0-4.98.24-7.4.47-1.04.1-2.09.2-3.14.28-.49.04-.94.23-1.37.41-.46.2-.9.38-1.35.38-.13,0-.25-.01-.38-.04-1.61-.39-3.29-.58-4.98-.58-2.95,0-6.09.58-9.6,1.78-3.03,1.03-5.49,2.66-7.29,4.83l-.18.22.24.15c2.07,1.32,4.32,1.62,6.49,1.91.38.05.77.1,1.14.16,1.39.21,2.65.31,3.86.31,4.4,0,7.84-1.37,10.52-4.2,2.66-2.81,6-4.09,10.8-4.13h.5c5.28,0,10.67.71,16.46,2.17,5.13,1.29,9.54,3.59,13.1,6.83,5.32,4.83,10.48,10.49,16.75,18.33.05.06.1.12.15.17.25.28.4.48.33.74-.04,0-.07,0-.09-.01-6.74-5.09-13.09-7.66-19.96-8.08-2.34-.14-4.42-.42-6.12-2.29-.72-.79-2.1-1.27-3.69-1.27-.91,0-1.79.16-2.43.44l-.45.2.42.25c.25.15.51.29.77.43.6.32,1.16.63,1.64,1.03.09.08.2.16.31.24.6.44.94.75.66,1.3-.26.49-.65.73-1.2.73-.25,0-.54-.05-.86-.15-1.46-.45-2.87-1-4.56-1.8l-.8-.38.48.74c.98,1.5,2.03,2.54,3.51,3.47,1.15.72,2.28,1.09,3.36,1.09,1.18,0,2.24-.43,3.16-1.28.97-.9,1.94-1.26,3.32-1.26.38,0,.82.03,1.38.09,7.25.77,13.86,3.4,20.22,8.03,6.11,4.46,10.64,10.36,15.51,17.05,3.78,5.19,6.57,10.86,8.8,15.71,2.81,6.12,5.02,12.3,6.57,18.38.89,3.49,1.99,8.12,2.64,12.96.97,7.21,1.83,14.26,1.8,21.36,0,1.04.02,2.1.03,3.12.05,2.43.09,4.93-.18,7.36-.24,2.11-.43,4.25-.62,6.33-.3,3.34-.61,6.8-1.11,10.18-.62,4.18-1.46,8.39-2.28,12.45l-.42,2.1c-.79,3.94-1.93,7.89-3.03,11.7-.21.73-.42,1.45-.63,2.17l-.07.24c-1.08,3.79-2.21,7.71-3.6,11.46-1.53,4.1-3.39,8.95-5.61,13.75-3.11,6.73-6.95,13.28-11.42,19.46-4.67,6.46-10.1,12.42-16.13,17.72-2.26,1.99-4.81,4.23-7.57,6.16.01-.12.11-.18.26-.28.08-.05.17-.11.23-.17,4.08-3.86,8.1-8.22,11.95-12.95,6.06-7.45,11.51-15.48,16.22-23.87,4.96-8.84,8.39-16.27,10.81-23.4,1.67-4.92,3.06-10.24,4.37-16.75.99-4.92,2.14-11.42,2.16-18.05,0-1.68.04-3.39.07-5.04.04-2.1.08-4.27.06-6.41-.04-6.02-.49-12.19-1.33-18.34-1.04-7.54-2.54-14.8-4.46-21.59-1.44-5.08-3.02-10.06-4.69-14.79-2.39-6.75-5.24-13.56-8.72-20.82-3.69-7.71-8.8-15.07-16.08-23.16-1.01-1.13-2.14-2.22-3.74-2.22-.33,0-.68.05-1.03.14l-.56.15.49.3c1.75,1.07,3.35,2.44,4.74,4.09,4.1,4.85,8.78,10.56,12.34,16.91,2.59,4.62,4.94,9.55,7.19,15.06,1.71,4.21,3.4,8.74,5.01,13.47,1.95,5.74,3.28,10.14,4.31,14.28,1.77,7.13,2.92,14.4,3.81,20.56.98,6.77,1.14,13.46,1.17,19.1.03,5.94-.09,12.94-1.24,19.87-1.36,8.22-2.77,14.44-4.56,20.17-.09.3-.17.62-.25.94-.22.88-.44,1.78-1.04,2.62,0-.1,0-.2-.01-.3-.02-.56-.04-.99.04-1.41,1.06-5.39,1.16-10.92,1.26-16.27.03-1.59.06-3.24.11-4.85.34-10,0-20.86-1.07-34.2-.05-.63-.09-1.27-.14-1.91-.16-2.3-.32-4.67-.8-6.95-1.19-5.67-2.43-11.21-4.46-16.67-2.68-7.21-6.05-14.06-10.02-20.38-3.8-6.03-8.16-11.85-12.97-17.29-3.79-4.29-8.27-9.19-13.42-13.09-1.54-1.16-3.12-2.33-4.64-3.45-3.4-2.51-6.92-5.1-10.21-7.87-3.97-3.35-7.67-6.93-11.01-10.64-2.92-3.24-5.18-6.79-7.2-10.14l-.68-1.13.22,1.3c1.37,8.1,6.65,13.62,12.09,18.53-.08,0-.13-.02-.16-.03-5.38-2.52-11.26-4.37-17.97-5.65l-.59-.11c-4.37-.83-8.88-1.69-12.78-4.21-.91-.59-1.87-1.07-2.98-1.62-.54-.27-1.12-.55-1.73-.88l-1.08-.56.77.94c1.42,1.75,3.12,2.75,4.77,3.72.96.56,1.87,1.1,2.68,1.75-.07.08-.14.08-.21.08h-.08s-.1,0-.1,0c-3.67.12-7.29.23-10.92.35l-3.91.12c-1.62.05-3.18.41-4.78.8-.71.18-1.41.42-2.1.66-1.27.44-2.58.9-3.92.9-.39,0-.78-.04-1.16-.12-1.14-.24-2.38-.35-3.91-.35-.81,0-1.64.03-2.43.06-.56.02-1.11.04-1.67.05-1.1.02-1.92.33-2.44.92-.49.55-.69,1.32-.59,2.29l.04.43.35-.26c.88-.64,1.78-.95,2.75-.95,1.38,0,2.76.63,4.22,1.3h.01c-.66.18-1.35.28-2.02.38-2.35.35-4.79.72-5.98,3.92l-.21.57.55-.25c2.37-1.09,4.23-1.58,6.02-1.58.97,0,1.93.14,2.9.44-2.39.76-4.76,1.87-6.44,4.27l-.16.23.25.13c1.07.58,2.14.66,3.13.66.24,0,.48,0,.71,0,.23,0,.46,0,.69,0h.05c3.21,0,5.28-1.17,6.52-3.68.89-1.81,2.47-3.09,4.82-3.91,1.67-.59,3.58-1.37,5.16-2.71,2.14-1.82,4.3-2.7,6.61-2.7.45,0,.92.03,1.39.1.16.02.32.03.5.03.26,0,.51-.02.73-.05,1.99-.21,4-.31,6-.31,5.32,0,10.82.75,16.35,2.24,9.79,2.63,16.79,5.81,22.69,10.31.3.23.62.43.93.63.28.18.57.37.84.56.2.15.45.22.68.29.38.11.63.2.73.47-4.75-1.58-9.86-3.05-15.12-3.23-.51-.02-1.01-.03-1.51-.03-5.36,0-9.86,1.1-13.74,3.36l-1.3.75,1.47-.29c2.28-.45,4.68-.68,7.34-.68,3.96,0,7.9.49,11.71.96,4.17.52,8.36,1.52,12.41,2.5.75.18,1.5.36,2.25.54,1.38.33,3.16.87,4.7,2.2,3.68,3.2,7.32,6.77,10.83,10.63,5.29,5.82,10.23,12.46,14.68,19.73,5.03,8.22,8.92,17.05,11.56,26.24,1.59,5.55,2.26,11.23,2.86,17.05.64,6.26.82,12.65.99,18.82.03,1.09.06,2.17.09,3.26.37,12.42-.14,24.54-1.53,36.02-.05.44-.1.88-.15,1.32-.21,1.98-.43,4.03-1.21,5.77-4.56,10.17-10.18,19.99-16.73,29.2-6.75,9.49-13.75,17.36-21.41,24.07-.55.48-1.09.96-1.63,1.45-2.56,2.28-5.2,4.65-8.28,6.34-5.35,2.95-11.15,5.61-18.27,8.39-6.91,2.7-14.42,4.9-22.96,6.74-6.82,1.47-12.44,2.34-17.69,2.74-.42.03-.83.13-1.24.22-.49.11-1.01.23-1.52.23-.26,0-.5-.03-.74-.09.09-.06.16-.1.21-.1,2.5-.21,4.95-.8,7.31-1.37.9-.21,1.79-.43,2.69-.63,6.31-1.37,12.81-3.57,21.06-7.14,7.04-3.04,14.2-6.94,21.9-11.91,8.87-5.73,17.03-12.59,24.25-20.37,5.67-6.11,10.63-12.87,14.73-20.07,4.04-7.1,7.31-14.36,9.72-21.59,1.48-4.46,2.74-8.95,3.72-13.33,1.03-4.58,1.83-9.49,2.46-15.02.16-1.4.21-2.82.25-4.19.04-1.17.08-2.37.19-3.55.63-6.81.41-14.05-.67-22.13-.61-4.54-1.77-9.27-3.65-14.88-2.08-6.2-4.54-11.62-7.54-16.58-6.96-11.52-14.96-19.7-24.45-25-4.67-2.61-9.91-4.3-17.01-5.47-1.19-.2-2.41-.32-3.6-.44-3.13-.31-6.38-.63-9.3-2.41-1.53-.93-3.48-1.11-5.37-1.29-.37-.03-.73-.07-1.09-.11-.39-.04-.78-.06-1.21-.06-1.08,0-2.17.14-3.22.27-1.04.13-2.11.26-3.16.26-1.54,0-2.79-.29-3.94-.91-.12-.06-.25-.07-.33-.07-.05,0-.11,0-.16,0-.52.03-1.35.08-1.57.81-.16.55.29.82.59,1,.11.07.22.14.3.21.59.56,1.34.72,2.06.88.49.11.97.21,1.4.43-.39.37-.84.67-1.3.98-.83.56-1.69,1.13-2.29,2.17l-.3.51.58-.14c1.22-.3,2.34-.45,3.44-.45.39,0,.79.02,1.19.06.24.02.54.21.58.31.09.25-.25.48-.46.59-.15.08-.34.12-.55.17-.25.05-.52.11-.75.25-.3.19-.64.34-.99.5-1.02.46-2.18.98-2.68,2.61l-.16.53.5-.23c.54-.25,1.05-.48,1.53-.71,1.06-.49,1.97-.92,2.92-1.32,1.65-.69,3.02-1.2,4.32-1.62.89-.29,1.82-.53,2.73-.75-.89.55-1.8,1.05-2.68,1.55-2.67,1.5-5.44,3.04-7.49,5.56l-.55.67.82-.28c.92-.31,1.8-.75,2.65-1.18,1.31-.66,2.66-1.33,4.26-1.6-.57.89-.98,1.73-.66,2.9l.09.33.29-.19c.93-.63,1.89-1.24,2.82-1.83,2.76-1.76,5.62-3.58,7.99-5.98l.12-.13c.76-.78,1.42-1.45,2.5-1.45.08,0,.17,0,.25.01,1.41.13,2.83.34,4.21.55,2.14.32,4.36.66,6.58.67.14,0,.28.05.35.12.05.05.07.1.07.18,0,.05-.15.22-.33.34-.33.21-.69.33-1.17.46-5.07,1.39-9.14,3.64-12.43,6.88-1.47,1.44-3.11,3.33-4.16,6.42l-.27.79.66-.51c.71-.55,1.37-1.07,2-1.57,1.27-1,2.47-1.95,3.67-2.84,3.95-2.93,9.3-6.51,15.65-8.17.78-.2,1.54-.31,2.25-.31.84,0,1.64.14,2.37.43,5.87,2.28,10.82,5.21,15.11,8.95,1.72,1.5,3.27,2.89,4.6,4.48-3.14-2.01-6.12-3.54-9.09-4.68-1.99-.76-4.62-1.63-7.35-1.63-1.02,0-2.02.12-2.97.36-1.29.33-3.06.77-3.67,2.57-.58,1.72.34,3.1,1.2,4.11,2.94,3.42,6.72,5.64,10.99,7.99l.99.54-.67-.91c-.74-1-1.55-1.94-2.34-2.85-.28-.32-.55-.64-.83-.96-1.43-1.69-2.55-3.15-3.39-4.85-.22-.45-.22-.64-.18-.71.09-.17.61-.23.78-.25.15-.02.3-.03.45-.03.76,0,1.45.21,2.19.43.47.14.95.28,1.44.37,2.94.51,5.84,1.4,8.65,2.25,1.7.52,3.46,1.06,5.21,1.51,1.16.3,2.46.77,3.4,2.01,6.46,8.53,11.24,17.78,14.2,27.47,2.25,7.35,3.47,14.72,3.65,21.92.27,10.99-.43,20.61-2.16,29.42-1.53,7.79-3.37,14.68-5.63,21.05-2.05,5.78-4.62,11.41-7.64,16.75-3.69,6.53-8.05,12.77-12.98,18.55-6.34,7.44-13.55,14.01-22.06,20.09-5.07,3.62-10.71,7.05-17.75,10.78-6.17,3.27-12.85,6.14-19.84,8.51-5.34,1.81-11.31,3.28-18.25,4.48-6.85,1.19-13.68,1.52-18.86,1.67-.17,0-.34,0-.51,0-1.35,0-2.74-.15-4.08-.3-1.28-.14-2.61-.28-3.92-.3-3.15-.04-6.44-.45-10.68-1.34-6.22-1.3-11.82-2.89-17.13-4.84-8.89-3.28-17.3-7.65-25.72-13.39-5.23-3.56-10.08-7.79-14.77-11.87-1.08-.94-2.15-1.87-3.23-2.8-5.12-4.41-10.09-9.92-15.63-17.32-4.31-5.76-8.12-11.86-11.64-18.65-2.35-4.53-4.57-9.57-6.8-15.41-1.58-4.15-2.94-8.65-4.42-14.6-.97-3.89-1.64-7.92-2.29-11.83l-.28-1.7c-.97-5.76-1.55-11.82-1.72-18.02-.14-5.14-.07-10.48.21-16.32.33-6.86,1.31-13.73,2.22-19.55,1.15-7.32,3.12-14.77,6.01-22.78,2.85-7.88,6.62-15.66,11.21-23.12,4.62-7.5,10.27-14.74,16.81-21.5,5.46-5.64,10.45-9.88,17.08-12.22,2.45-.87,4.91-1.84,7.29-2.79,2.71-1.07,5.5-2.19,8.3-3.14,5.05-1.72,9.74-3.06,14.36-4.1l1.26-.28c1.37-.3,2.78-.62,4.16-.98.05-.01.11-.02.17-.03.27-.05.63-.11.82-.4.11-.17.13-.39.06-.64-.09-.34-.32-.52-.64-.52-.15,0-.31.04-.45.08-.06.02-.12.03-.17.04-.73.15-1.46.28-2.19.41-1.58.29-3.21.59-4.79,1.02-3.74,1.02-7.77,2.23-12.33,3.69-3.81,1.22-7.63,2.6-11.37,4.11-.52.21-1.04.44-1.56.67-1.44.63-2.93,1.28-4.7,1.69,2.4-2.16,4.82-3.76,7.17-5.3l.56-.37c6.27-4.14,12.09-7.48,17.78-10.23,6.16-2.97,11.25-5.17,16.03-6.94,3.76-1.39,7.49-2.64,10.33-3.57,3.5-1.15,7.08-2.32,10.79-2.32.65,0,1.3.04,1.93.11.11.01.23.05.35.08.2.06.4.11.6.11.33,0,.58-.16.72-.47.2-.46-.01-.87-.2-1.23-.13-.26-.26-.5-.27-.76,0-.18-.09-.59-.77-.59-.31,0-.68.08-.89.14-.58.13-1.15.3-1.71.46-.78.22-1.58.46-2.38.6-2.87.52-5.82.74-8.68.95-2.83.21-5.76.43-8.63.94-4.5.79-8.87,1.71-12.99,2.72-5.28,1.3-10.76,3.14-16.76,5.62-6.49,2.69-12.97,6.09-19.26,10.09-5.25,3.35-10.26,7.17-15.33,11.68-6.11,5.45-11.7,11.59-16.61,18.25-.64.86-1.23,1.79-1.8,2.68-1.04,1.62-2.11,3.29-3.46,4.61-5.85,5.76-11.99,11.96-17.11,18.96-4.61,6.3-8.25,12.48-11.15,18.89-3.64,8.08-6.13,15.84-7.6,23.72-1.03,5.51-2.22,12.8-2.29,20.36,0,.19.02.39.03.58.05.57.09,1.05-.3,1.47l-.07.07v7.18c.54,2,.54,4.09.54,6.1,0,1.33,0,2.71.15,4.07.59,5.3,1.32,10.09,2.23,14.67,1.14,5.71,2.79,11.47,4.9,17.13,3.1,8.29,6.45,15.32,10.25,21.48,4.71,7.64,10.3,14.9,16.61,21.57,5.52,5.84,12.06,11.53,19.98,17.41,1.37,1.01,2.8,1.98,4.19,2.91,2.47,1.66,5.02,3.37,7.27,5.42,5.12,4.65,11.05,8.89,18.65,13.33,5.16,3.01,10.83,5.67,16.85,7.92,4.33,1.61,8.98,2.98,14.23,4.17,3.88.88,7.77,1.46,11.4,1.95.8.11,1.6.22,2.4.33,2.42.34,4.91.69,7.4.91,1.28.12,2.58.19,3.84.26,1.85.1,3.76.21,5.62.45h13.69c2.2-.31,4.41-.52,6.55-.73,2.29-.22,4.65-.45,6.97-.79,5.31-.79,9.73-1.49,14.21-2.61,6.48-1.62,12.23-3.47,17.58-5.65,6.76-2.75,12.7-5.67,18.13-8.93,2.85-1.71,5.61-3.65,8.28-5.53,1.56-1.1,3.17-2.23,4.78-3.31l1.66-1.1c5.18-3.44,10.54-7.01,15.45-11.07,5.01-4.15,9.74-8.96,14.47-14.7,6.91-8.4,12.58-17.77,16.84-27.86,3.63-8.6,6.79-18.08,9.64-28.97,1.46-5.56,3.09-12.02,4.04-18.41.79-5.3,1.75-12.29,2.16-19.41.63-10.94.3-20.9-.99-30.45-.89-6.56-2.24-12.87-4-18.75-2.02-6.76-4.68-13.55-8.11-20.74-.3-.63-.67-1.23-1.03-1.82-.76-1.25-1.55-2.53-1.7-4.14-.21-2.32-.52-4.68-.8-6.7-.45-3.31-1.12-6.59-1.78-9.64-1.42-6.58-3.16-11.89-7.06-16.47-4.4-5.16-9.67-9.17-15.14-13.16-.2-.15-.45-.33-.79-.33-.35,0-.72.18-1.14.55l-.21.18.2.19c.86.82,1.73,1.64,2.6,2.45,1.93,1.81,3.92,3.69,5.81,5.58.47.47.95.93,1.43,1.4,2.27,2.19,4.62,4.46,5.78,7.42,1.5,3.82,2.66,8.08,3.75,13.81.11.55.23,1.08.37,1.65.29,1.21.59,2.45.65,3.89l-.68-.95c-.72-1.01-1.36-1.91-2-2.81-3.81-5.46-7.82-10.57-11.91-15.19-1.21-1.37-2.51-2.7-3.77-3.98-2.08-2.13-4.23-4.33-6-6.74-3.91-5.31-7.17-11.18-10.32-16.87-.53-.95-1.06-1.91-1.59-2.86-1.53-2.73-3.04-5.46-4.62-8.32l-2.25-4.06-.59-1.07.13,1.22c.8,7.69,4.24,14.21,7.19,19.53-.09-.07-.18-.14-.27-.21-.21-.17-.42-.34-.65-.49-9.46-6.11-19.83-10.92-30.82-14.29-1.79-.55-3.63-1.12-5.22-2.22-4.72-3.27-8.09-7.85-10.87-11.88-.93-1.34-1.81-2.75-2.67-4.11-.4-.63-.79-1.26-1.19-1.89l-.6-.94h0ZM43.61,76.85c5.57-10.36,26.37-28.65,38.41-35.17,15.81-8.56,32.58-13.8,49.84-15.6-.66.53-1.49.76-2.29.99-.22.06-.44.12-.65.19-7.36,2.3-14.96,5.49-24.62,10.34-6.64,3.33-13.49,7.52-21.56,13.19-1.4.98-2.72,2.09-4.01,3.17-.67.56-1.34,1.13-2.02,1.67-2.35,1.88-5.08,3.24-7.71,4.55-1.59.79-3.23,1.61-4.79,2.53-6.83,4.08-14.04,8.61-20.61,14.13h0Zm93.66,226.1c-.6-.04-1.21-.05-1.8-.06-.96-.01-1.94-.03-2.89-.17-1.1-.17-2.19-.34-3.29-.51-4.74-.72-9.63-1.47-14.36-2.57-7.35-1.71-14.62-3.94-21.63-6.64-6.77-2.6-12.27-5.05-17.32-7.68l-1.47-.76c-3.7-1.92-7.53-3.9-10.93-6.43-2.81-2.09-5.18-4.75-7.47-7.33l-.55-.62c-3.95-4.44-7.88-9.39-11.67-14.71-4.41-6.19-8.57-12.9-12.37-19.94l-.27-.5c-4.03-7.47-8.2-15.2-11.07-23.33-1.46-4.15-2.53-8.52-3.56-12.75l-.26-1.06c-1.18-4.82-1.98-9.96-2.46-15.72-.48-5.81-.91-11.99-.37-18.22.16-1.88.31-3.77.46-5.66.17-2.17.35-4.33.54-6.5.25-2.9.83-5.8,1.4-8.6.23-1.16.47-2.33.68-3.5.95-5.26,2.43-10.85,4.66-17.59,2.08-6.3,4.61-12.66,7.51-18.91,3.67-7.92,7.05-14.35,10.63-20.26,1.04-1.71,2.6-2.92,4.1-4.08.31-.24.63-.48.93-.73,7.32-5.84,14.97-10.96,22.73-15.2.68-.37,1.37-.73,2.08-1.1l.74-.39c-.01.12-.12.2-.31.32-.09.06-.17.12-.24.18-9.33,8.83-17.21,18.82-23.44,29.71-4.14,7.24-7.58,15.06-10.2,23.24-2.11,6.57-3.73,13.16-4.82,19.58-1.02,5.98-1.72,12.46-2.15,19.81-.33,5.62-.42,10.65-.27,15.38.23,7.36.95,14.62,2.14,21.58,1.22,7.17,2.71,13.52,4.53,19.42,2.49,8.05,5.8,15.99,9.83,23.61,3.92,7.4,8.51,14.4,13.62,20.8,5.52,6.91,11.09,12.56,17.02,17.25,1.69,1.34,3.36,2.76,4.97,4.14,2.51,2.15,5.11,4.37,7.87,6.33,5.67,4.02,11.59,7.52,17.57,10.38,5,2.4,10.05,4.41,14.99,5.98,4.06,1.29,8.32,2.27,12.08,3.13.55.13,1.11.16,1.66.2.85.06,1.66.11,2.41.46h0Zm-82.12-30.4s-.1-.07-.15-.1c-.91-.6-1.86-1.23-2.72-1.91-9.47-7.45-17.14-14.89-23.45-22.75-5.26-6.55-9.89-13.61-13.76-21-2.45-4.67-4.38-9.62-5.94-13.85-1.71-4.61-3.15-9.61-4.53-15.74-.84-3.75-1.35-7.51-1.87-11.69-.56-4.5-.74-9.05-.89-13.7-.18-5.81.09-11.94.84-18.76.45-4.13.94-8.17,1.84-12.16.92-4.07,2.06-8.79,3.83-13.21,2.05-5.12,4.59-11.12,7.9-16.84,3.81-6.58,8.37-12.84,13.55-18.63l.75-.84c1.44-1.62,2.92-3.29,4.6-4.74-3.76,7.03-6.51,12.62-8.84,18.01-2.6,6-4.53,11.02-6.07,15.8-1.39,4.32-2.84,8.96-3.99,13.6-1.65,6.66-2.87,13.86-3.74,22.02-.9,8.45-.99,16.89-.28,25.08.63,7.14,1.54,13,2.87,18.45,1.49,6.09,3.34,13.13,6.39,19.71,4.62,9.95,10.98,22.91,19.21,34.94,3.32,4.85,7.12,9.77,11.31,14.65.34.4.69.79,1.04,1.18.7.79,1.42,1.59,2.09,2.46h0Zm96.54,37.92c-3.86,0-7.43-.11-10.93-.33-5.39-.35-10.28-.88-14.95-1.62-4.33-.69-8.64-1.54-12.83-2.53-5.83-1.38-11.92-3.52-18.62-6.55-5.6-2.54-11.37-5.89-17.65-10.24-1.25-.87-2.47-1.83-3.66-2.77,25.62,12.62,52.31,19.01,79.37,19.01,22.63,0,46.17-4.47,70.01-13.3-.48.3-.98.59-1.47.86l-.46.26c-8.45,4.85-17.76,8.79-27.68,11.71-6.61,1.95-12.49,3.24-17.98,3.95-4.51.59-9.33,1.18-14.26,1.37-3.14.12-6.05.18-8.89.18h0Z"/>
      </g>
      <g>
        <path d="m214.47,217.48c-4.98,0-9.94-1.54-16.06-5-.35-.2-.7-.38-1.06-.56-.71-.37-1.45-.75-2.11-1.23-.49-.36-.97-.52-1.49-.52-.4,0-.84.09-1.46.31-1.16.41-2.44.61-3.81.61-5.02,0-10.03-2.7-11.92-6.43-3.23-6.37-1.47-13.87,4.1-17.43,2.46-1.58,5.33-2.41,8.3-2.41,4.67,0,8.9,2.05,11.34,5.48,3.19,4.5,3.15,9.08-.13,14.41-.49.79-1.12,1.42-1.78,2.07-.51.51-1.05,1.04-1.51,1.65.97.48,1.93.98,2.89,1.47,5.47,2.82,11.13,5.73,17.38,5.73,2.48,0,4.88-.44,7.35-1.35l.52-.19-.39.4c-1.19,1.22-3.8,2.17-5.72,2.54-1.47.28-2.96.43-4.43.43Zm-26.16-30.93c-.37,0-.75.02-1.13.06-3.74.4-6.52,2.55-7.62,5.9-1.4,4.24-.94,8.3,1.37,12.05,1.85,3.01,5.07,4.88,8.39,4.88h0c2.07,0,4.04-.75,5.7-2.16,2.37-2.01,3.4-4.79,3.33-9.02.13-3.37-1.01-6.57-3.14-8.78-1.85-1.92-4.24-2.94-6.9-2.94Z"/>
        <path class="cls-1" d="m188.96,184.96c4.45,0,8.74,1.91,11.23,5.43,2.97,4.19,3.34,8.61-.14,14.27-.89,1.45-2.32,2.37-3.37,3.84,6.63,3.29,13.05,7.28,20.46,7.28,2.35,0,4.8-.4,7.39-1.35-1.18,1.2-3.73,2.14-5.65,2.51-1.5.29-2.97.43-4.41.43-5.71,0-10.93-2.12-16-4.98-1.05-.59-2.18-1.08-3.16-1.78-.54-.39-1.05-.54-1.57-.54-.47,0-.96.13-1.5.32-1.18.41-2.46.61-3.77.61-4.77,0-9.89-2.58-11.81-6.36-3.19-6.31-1.54-13.69,4.05-17.27,2.53-1.62,5.41-2.39,8.24-2.39m.36,24.61c1.98,0,4-.67,5.79-2.18,2.68-2.27,3.43-5.43,3.37-9.12.25-6.4-4.02-11.84-10.16-11.84-.38,0-.76.02-1.15.06-3.97.43-6.66,2.77-7.73,5.98-1.4,4.22-.95,8.37,1.38,12.16,1.84,2.99,5.12,4.94,8.5,4.94m-.36-24.86h0c-3,0-5.89.84-8.37,2.43-5.62,3.6-7.4,11.16-4.14,17.59,1.91,3.76,6.96,6.49,12.03,6.49,1.38,0,2.67-.21,3.85-.62.61-.21,1.03-.3,1.42-.3.5,0,.95.16,1.42.5.67.48,1.41.86,2.12,1.23.35.18.71.37,1.06.56,6.15,3.47,11.12,5.01,16.13,5.01,1.48,0,2.98-.14,4.46-.43,2-.39,4.56-1.33,5.78-2.58l.78-.79-1.04.38c-2.45.9-4.84,1.34-7.3,1.34-6.22,0-11.87-2.91-17.33-5.72-.92-.47-1.83-.94-2.75-1.4.43-.56.93-1.04,1.4-1.52.64-.63,1.3-1.29,1.8-2.1,3.31-5.38,3.35-10,.13-14.54-2.45-3.46-6.73-5.53-11.44-5.53h0Zm.36,24.61c-3.28,0-6.46-1.85-8.29-4.82-2.29-3.73-2.75-7.75-1.36-11.95,1.09-3.3,3.83-5.42,7.52-5.81.38-.04.75-.06,1.12-.06,2.63,0,4.99,1,6.81,2.9,2.1,2.18,3.23,5.35,3.1,8.68.07,4.21-.95,6.96-3.28,8.94-1.64,1.39-3.58,2.12-5.62,2.12h0Z"/>
      </g>
      <g>
        <path d="m59.84,210.85c-.83,0-1.69-.09-2.53-.26-.98-.2-1.97-.23-2.91-.23h-1.44c-.76,0-1.66,0-2.57-.14l-.8-.12.8-.13c2.27-.37,2.44-1.93,2.43-3.78-.03-6.19-.03-12.38-.02-18.58v-1.48c0-.25,0-.5.02-.76.06-1.95.11-3.79-2.98-3.89v-.25c.89-.03,1.77-.07,2.64-.11,1.59-.07,3.1-.14,4.63-.14s2.85.07,4.08.21c2.44.29,4.25,1.5,5.1,3.42.96,2.16.54,4.94-1.1,7.25-.26.37-.55.75-.91,1.04-.42.33-.59.54-.58.71.02.18.25.38.77.67,4.54,2.48,5.88,4.91,5.3,9.64-.29,2.37-1.87,4.37-4.45,5.63-1.76.86-3.6,1.29-5.48,1.29Zm-2.8-15.67c-.44,0-.86.15-.87,1.22-.05,3.88-.05,7.37.36,10.85.07.56.11.94.6,1.17,1.08.53,2.28.81,3.46.81,2.63,0,4.66-1.34,5.44-3.59.6-1.72.19-3.17-.24-4.69-.07-.23-.13-.46-.19-.7-.55-2.07-3.13-5.06-6.34-5.06-.22,0-.44.01-.66.04-.07.04-.21.07-.37.07-.18,0-.38-.03-.58-.06-.2-.03-.41-.07-.61-.07Zm1.05-12.84c-.81.01-1.32.17-1.62.5-.27.3-.38.77-.33,1.42.06.86.05,1.73.03,2.57,0,.38-.01.75-.01,1.13v2.72c0,2.41.56,3.23,2.2,3.23h0c.41,0,.9-.05,1.5-.16,2.28-.41,3.33-1.59,3.51-3.93.06-.77.06-1.6,0-2.69-.16-2.73-2.39-4.79-5.17-4.79v-.12l-.09.13Z"/>
        <path class="cls-1" d="m57.11,181.11c1.36,0,2.71.06,4.06.21,5.68.67,6.92,6.24,3.91,10.47-.26.36-.54.74-.89,1.01-.87.69-.86.99.22,1.58,4.24,2.32,5.83,4.62,5.23,9.52-.32,2.6-2.11,4.43-4.38,5.54-1.72.84-3.54,1.28-5.42,1.28-.82,0-1.66-.08-2.5-.26-.97-.2-1.94-.23-2.93-.23-.48,0-.96,0-1.45,0-.84,0-1.69-.02-2.55-.15,2.38-.39,2.55-2.04,2.54-3.9-.04-6.69-.03-13.37-.02-20.06,0-2.18.54-4.65-3.08-4.77,2.49-.08,4.89-.25,7.26-.25m1.24,12.91c.43,0,.93-.06,1.52-.16,2.33-.42,3.43-1.61,3.61-4.04.07-.9.04-1.81,0-2.71-.17-2.83-2.47-4.91-5.3-4.91-.03,0-.06,0-.1,0-1.42.02-2.2.48-2.08,2.06.09,1.22.02,2.46.02,3.69,0,.91,0,1.81,0,2.72,0,2.41.57,3.35,2.33,3.35m2.23,15.33c2.41,0,4.69-1.16,5.56-3.67.7-2.03.03-3.71-.43-5.46-.6-2.25-3.31-5.16-6.46-5.16-.22,0-.45.01-.67.04-.1.05-.22.07-.36.07-.35,0-.8-.13-1.19-.13-.54,0-.98.24-.99,1.35-.04,3.63-.06,7.25.37,10.87.06.54.11,1,.67,1.27,1.1.54,2.33.82,3.51.82m-3.48-28.49c-1.53,0-3.03.07-4.63.14-.87.04-1.75.08-2.65.11v.5c2.96.1,2.91,1.8,2.85,3.76,0,.25-.01.51-.01.76v1.49c0,6.09-.02,12.38.02,18.57.01,1.85-.15,3.3-2.33,3.66l-1.6.26,1.61.23c.92.13,1.82.15,2.58.15.25,0,.49,0,.73,0,.24,0,.48,0,.72,0,.92,0,1.91.03,2.88.22.85.17,1.71.26,2.55.26,1.9,0,3.76-.44,5.53-1.31,2.62-1.28,4.22-3.31,4.52-5.73.58-4.73-.83-7.29-5.36-9.77-.57-.31-.7-.48-.71-.57,0-.11.17-.31.53-.6.38-.3.67-.69.93-1.06,1.67-2.34,2.09-5.17,1.12-7.37-.87-1.96-2.72-3.2-5.2-3.49-1.23-.15-2.57-.22-4.09-.22h0Zm1.24,12.91c-1.57,0-2.08-.75-2.08-3.1v-1.86s0-.86,0-.86c0-.38,0-.75.01-1.13.02-.84.03-1.72-.03-2.58-.05-.62.05-1.05.3-1.33.27-.3.76-.45,1.53-.46h.09c2.72,0,4.89,2.01,5.05,4.67.07,1.09.07,1.91,0,2.67-.18,2.3-1.17,3.41-3.41,3.81-.59.11-1.07.16-1.47.16h0Zm2.23,15.33c-1.16,0-2.34-.27-3.4-.79-.41-.2-.46-.49-.53-1.04-.42-3.51-.41-7-.37-10.87.01-1.1.47-1.1.74-1.1h0c.18,0,.39.03.59.06.2.03.41.06.6.06.17,0,.31-.02.43-.08.2-.02.4-.04.6-.04,3.15,0,5.67,2.94,6.22,4.97.06.23.13.47.19.7.43,1.51.83,2.93.25,4.62-.76,2.2-2.75,3.51-5.32,3.51h0Z"/>
      </g>
      <g>
        <path d="m133.96,171.06c-.11,0-.23-.02-.36-.07-.66-.25-.61-.84-.57-1.31,0-.11.02-.23.02-.33,0-2.5,0-5,.01-7.5,0-3.14.02-6.29,0-9.43,0-.85-.07-1.71-.14-2.54-.04-.5-.08-1.01-.11-1.51-.07-1.25-.75-1.9-2.27-2.15l.02-.25h7.72l.02.25c-1.69.27-1.81,1.38-1.8,3.02.03,3.85.02,7.7.02,11.54v4.26s.33.13.33.13l2.43-2.87c1.91-2.26,3.82-4.52,5.75-6.77,2.71-3.17,5.45-6.31,8.2-9.46l.11-.13c.28-.33.6-.71,1.04-.71.08,0,.16.01.24.04.67.21.65.83.63,1.34,0,.1,0,.19,0,.29l.09,4.35c.1,4.7.2,9.41.28,14.11v.13q.05,3.41,3.07,4.84l.5.24h-10.56l.98-.25c1.8-.45,2.03-1.84,2.11-3.35.22-3.95.21-7.9.2-12.08,0-1.44,0-2.9,0-4.4l-2.39,2.82c-1.81,2.14-3.51,4.14-5.22,6.14-3.05,3.56-6.11,7.12-9.19,10.66-.07.08-.13.16-.2.25-.24.32-.51.69-.96.69Z"/>
        <path class="cls-1" d="m154.38,145.35c.06,0,.13.01.2.03.69.22.53.94.54,1.51.13,6.15.28,12.31.37,18.46.05,3.6.02,3.6,3.15,5.09h-9c1.83-.46,2.11-1.85,2.2-3.46.3-5.43.17-10.85.2-16.83-2.84,3.34-5.32,6.29-7.83,9.22-3.05,3.56-6.11,7.12-9.19,10.66-.3.34-.55.9-1.06.9-.1,0-.2-.02-.31-.06-.72-.28-.47-.99-.47-1.53,0-5.64.03-11.29.02-16.93,0-1.35-.18-2.71-.25-4.06-.08-1.51-1.05-2.04-2.37-2.27h7.72c-1.88.3-1.91,1.66-1.9,3.15.04,5.3.02,10.59.02,15.89.16.06.33.13.49.19,2.74-3.24,5.47-6.49,8.23-9.71,2.71-3.17,5.45-6.31,8.2-9.46.29-.33.62-.8,1.06-.8m0-.25c-.5,0-.85.42-1.14.75l-.11.13c-2.91,3.34-5.54,6.35-8.2,9.46-1.92,2.24-3.82,4.5-5.73,6.75-.79.94-1.59,1.88-2.39,2.82l-.17-.06c0-1.4,0-2.8,0-4.2,0-3.78,0-7.68-.02-11.53-.01-1.63.1-2.64,1.69-2.9l-.04-.5h-7.72l-.04.5c1.47.25,2.1.83,2.17,2.03.03.5.07,1.01.11,1.51.07.83.14,1.69.14,2.54,0,3.14,0,6.29,0,9.43,0,2.5-.01,5-.01,7.5,0,.1,0,.21-.02.32-.04.46-.1,1.15.65,1.44.14.05.27.08.4.08.52,0,.82-.41,1.06-.74.06-.09.13-.17.19-.24,2.81-3.23,5.82-6.72,9.19-10.66,1.72-2.01,3.42-4.02,5.24-6.17l2.15-2.53c0,1.38,0,2.73,0,4.06.01,4.18.02,8.12-.2,12.07-.1,1.75-.46,2.84-2.02,3.23l-1.96.49h12.12l-1-.48q-2.95-1.4-3-4.73v-.13c-.07-4.69-.18-9.46-.28-14.07l-.09-4.39c0-.09,0-.18,0-.28.01-.52.03-1.22-.72-1.46-.09-.03-.18-.04-.28-.04h0Z"/>
      </g>
      <g>
        <path d="m184.32,170.58l.96-.25c1.92-.49,1.93-1.97,1.94-3.4,0-.29,0-.58.02-.85.38-5.71.23-11.48.05-16.9-.05-1.39-.25-2.88-2.06-2.97h-.37v-.25s.19,0,.19,0h.18s7.54,0,7.54,0v.25c-1.43.17-1.72,1.09-1.72,2.52,0,1.29-.05,2.59-.1,3.85-.03.66-.05,1.32-.07,1.98-.02.54.09.92.31,1.15.23.23.59.34,1.12.34,1.58-.02,3.11-.03,4.65-.03,2.3,0,4.6.02,6.9.04h0c.58,0,.96-.12,1.19-.36.23-.24.33-.61.31-1.14-.07-1.69-.11-3.37-.14-5.06-.03-1.59-.35-3.09-2.47-3.3v-.25h8.83l-1.08.25c-1.54.35-1.84,1.37-1.82,2.89.04,3.97.03,8,.03,11.9v4.84q0,3.23,3.23,4.46l.64.24h-10.37s.76-.24.76-.24c1.48-.47,1.88-1.52,2.05-3.07.24-2.16.28-4.36.32-6.49l.03-1.45c.02-.64-.07-1-.28-1.22-.2-.2-.52-.29-1.02-.29-1.88.03-3.7.04-5.53.04-2.07,0-4.15-.01-6.22-.04h0c-.64,0-.99.1-1.2.32-.21.22-.29.56-.26,1.1.13,2.72.22,5.64.28,8.94.01.83.39,1.29,1.24,1.52l.12.03c.49.13,1.01.27,1.47.67l.26.22h-9.91Z"/>
        <path class="cls-1" d="m210.48,146.08c-1.63.37-1.93,1.51-1.92,3.02.06,5.58.02,11.16.02,16.74q0,3.32,3.32,4.58h-8.88c1.61-.51,1.97-1.7,2.14-3.17.29-2.65.29-5.3.35-7.95.03-1.1-.22-1.64-1.42-1.64-.02,0-.04,0-.06,0-1.83.03-3.65.04-5.48.04-2.07,0-4.14-.01-6.21-.04-.02,0-.04,0-.06,0-1.1,0-1.59.35-1.53,1.55.14,2.98.23,5.96.28,8.94.02.96.5,1.41,1.33,1.64.53.15,1.06.27,1.54.68h-8.59c2.41-.62,1.95-2.72,2.06-4.36.37-5.63.24-11.28.05-16.91-.05-1.48-.28-3-2.18-3.09h7.54c-1.61.19-1.85,1.28-1.85,2.64,0,1.94-.12,3.88-.17,5.82-.03,1.07.37,1.63,1.55,1.63.02,0,.03,0,.05,0,1.54-.02,3.08-.03,4.61-.03,2.29,0,4.59.02,6.88.03.01,0,.02,0,.03,0,1.13,0,1.64-.48,1.6-1.63-.07-1.68-.11-3.37-.14-5.05-.03-1.76-.45-3.21-2.58-3.42h7.71m-25.43,0c.06,0,.12,0,.18,0h-.38c.07,0,.13,0,.19,0m27.65-.25h-9.92l-.02.5c1.91.19,2.32,1.41,2.36,3.18.02,1.39.06,3.22.14,5.06.02.49-.07.84-.28,1.05-.21.22-.56.32-1.07.32-2.32-.02-4.62-.04-6.91-.04-1.54,0-3.08,0-4.62.03h0c-.54,0-.87-.1-1.07-.31-.2-.21-.29-.56-.28-1.06.02-.66.05-1.32.07-1.97.05-1.26.1-2.57.1-3.86,0-1.4.26-2.24,1.62-2.4l-.03-.5h-7.54c-.06,0-.13,0-.19,0s-.13,0-.2,0v.5h.38c1.53.08,1.88,1.15,1.93,2.85.18,5.42.33,11.19-.05,16.89-.02.28-.02.56-.02.86-.01,1.44-.02,2.81-1.85,3.28l-1.91.49h11.24l-.52-.44c-.49-.41-1.01-.56-1.52-.69l-.12-.03c-.8-.22-1.14-.63-1.15-1.4-.06-3.3-.15-6.23-.28-8.94-.02-.49.05-.82.23-1,.18-.19.52-.28,1.05-.28h.06c2.23.03,4.26.04,6.22.04s3.74-.01,5.48-.04h.05c.46,0,.76.08.93.26.19.19.26.53.25,1.13-.01.48-.02.96-.03,1.45-.04,2.13-.08,4.33-.32,6.48-.17,1.53-.55,2.51-1.96,2.96l-1.53.49h11.86l-1.28-.48q-3.16-1.19-3.16-4.34c0-1.62,0-3.24,0-4.86,0-3.89.01-7.92-.03-11.88-.01-1.46.27-2.44,1.72-2.77l2.16-.49h0Z"/>
      </g>
      <g>
        <path d="m75.28,170.97c-.75,0-1.53-.06-2.3-.18-.69-.11-1.4-.12-2.07-.12h-.96s-.99,0-.99,0c-.97,0-1.96-.02-3.08-.15l-.62-.07.6-.17c2.62-.77,2.6-2.69,2.57-4.72v-.44c-.03-4.64-.03-9.27-.02-13.91v-5.16q0-3.27-2.84-4.23l-.11-.04.03-.11c.08-.31.27-.47.56-.47.1,0,.2.02.29.03.08.01.15.03.21.03.78,0,3.45,0,3.45,0,4.25,0,8.08-.03,11.9-.39.12-.01.23-.02.33-.02.4,0,.67.1.82.29.16.22.17.55.02,1.03-.29.93-.37,1.9-.46,2.93l-.14,1.53-.17-.83c-.39-1.95-1.49-2.81-3.56-2.81-.2,0-.4,0-.61.02-.68.05-1.38.07-2.15.07-.85,0-1.7-.03-2.54-.07-.09,0-.18,0-.27,0-.55,0-.91.1-1.12.33-.23.24-.33.64-.3,1.25.09,2.31.09,4.73,0,7.4-.02.62.08,1.03.31,1.28.25.26.67.37,1.38.38,2.85.02,5.49.04,8.09,1.53,3.89,2.23,4.16,5.72,3.9,8.85-.2,2.43-2.99,5.44-5.86,6.32-1.43.44-2.82.65-4.27.65Zm-2.42-15.86c-.9.01-1.08.48-1.08,1.24,0,1.12,0,2.24,0,3.49v1.77c.02.42.05.88.08,1.35.08,1.19.17,2.54.13,3.88-.04,1.57.77,2.05,2.19,2.36.53.11,1.08.17,1.64.17,2.35,0,4.41-1.02,5.01-2.48,1.3-3.14,1.19-6.22-.31-8.47-1.45-2.17-4.03-3.32-7.45-3.32h-.21Z"/>
        <path class="cls-1" d="m82.22,140.96c.72,0,.99.31.72,1.16-.36,1.15-.41,2.34-.53,3.63-.45-2.23-1.81-2.92-3.68-2.92-.2,0-.4,0-.62.02-.71.05-1.42.07-2.14.07-.85,0-1.69-.03-2.54-.07-.09,0-.19,0-.27,0-1.09,0-1.61.39-1.55,1.71.1,2.46.09,4.93,0,7.39-.05,1.38.49,1.78,1.82,1.79,2.75.02,5.44.03,8.03,1.51,3.57,2.04,4.13,5.15,3.84,8.73-.2,2.44-3.05,5.38-5.77,6.21-1.41.43-2.81.64-4.24.64-.75,0-1.51-.06-2.28-.18-.69-.1-1.39-.12-2.09-.12-.32,0-.65,0-.97,0-.15,0-.29,0-.44,0-1.15-.02-2.3,0-3.62-.15,2.91-.85,2.67-3.08,2.66-5.28-.04-6.36-.02-12.71-.02-19.07q0-3.36-2.93-4.35c.08-.3.25-.37.43-.37.17,0,.36.06.51.06h0c.8,0,1.59,0,2.39,0,.34,0,.68,0,1.02,0,3.99,0,7.98-.01,11.95-.39.12-.01.22-.02.32-.02m-6.4,28.53c2.29,0,4.47-.96,5.13-2.56,2.43-5.85.02-11.96-7.88-11.96-.07,0-.14,0-.21,0-.98.01-1.21.55-1.21,1.37,0,1.62,0,3.24,0,5.26.07,1.48.26,3.36.21,5.23-.04,1.69.88,2.18,2.28,2.48.55.12,1.11.17,1.67.17m6.4-28.78c-.11,0-.22,0-.34.02-3.82.36-7.51.39-11.93.39h-.51s-.51,0-.51,0c-.8,0-1.59,0-2.39,0h0c-.06,0-.13-.01-.19-.02-.1-.02-.21-.04-.31-.04-.34,0-.58.19-.68.56l-.06.23.22.08q2.76.94,2.76,4.11c0,1.71,0,3.42,0,5.12,0,4.57,0,9.3.02,13.95v.45c.03,2.07.06,3.85-2.48,4.59l-1.19.35,1.23.14c1.13.13,2.13.14,3.1.15h.54c.15,0,.3,0,.44,0h.49s.48,0,.48,0c.66,0,1.37.01,2.05.12.78.12,1.56.18,2.32.18,1.46,0,2.87-.21,4.31-.65,2.91-.89,5.75-3.95,5.95-6.43.26-3.17,0-6.71-3.96-8.97-2.63-1.5-5.41-1.52-8.11-1.54-.71,0-1.11-.11-1.33-.34-.21-.22-.3-.6-.28-1.18.09-2.68.09-5.11,0-7.41-.02-.57.07-.95.27-1.16.19-.2.52-.29,1.03-.29.08,0,.17,0,.26,0,.95.05,1.79.07,2.55.07s1.47-.02,2.15-.07c.2-.01.4-.02.6-.02,2,0,3.06.84,3.44,2.71l.33,1.66.16-1.69c.02-.23.04-.46.06-.68.09-1.02.17-1.98.46-2.9.16-.52.15-.89-.04-1.14-.17-.23-.47-.35-.92-.35h0Zm-6.4,28.53c-.55,0-1.09-.06-1.61-.17-1.38-.3-2.12-.74-2.09-2.23.03-1.34-.05-2.69-.13-3.89-.03-.48-.06-.94-.08-1.36v-1.74c0-1.26,0-2.39,0-3.51,0-.83.24-1.11.96-1.12h.21c3.38,0,5.92,1.13,7.35,3.26,1.48,2.21,1.58,5.25.3,8.35-.59,1.42-2.6,2.41-4.9,2.41h0Z"/>
      </g>
      <g>
        <path d="m87.23,210.84c-3.5,0-6.71-1.41-9.03-3.98-2.44-2.7-3.57-6.34-3.17-10.25.59-5.8,5.42-11.67,13.51-11.67.15,0,.3,0,.46,0,8.19.22,13.32,5.03,13.39,12.54.03,3.58-1.37,7.06-3.84,9.55-2.42,2.44-5.69,3.79-9.21,3.79-.33,0-.66-.01-1-.04-.36.03-.74.05-1.11.05Zm0-24.19c-3.9.05-7.6,3.44-8.1,7.41-.31,2.47-.29,4.47.06,6.3,1.04,5.44,4.73,8.68,10.39,9.12,1.65-.21,4.09-.71,5.92-2.69,3.02-3.25,3.01-7.14,2.59-10.5-.79-6.49-4.27-9.64-10.63-9.64h-.24Z"/>
        <path class="cls-1" d="m88.55,185.07c.15,0,.3,0,.45,0,7.53.21,13.2,4.44,13.27,12.41.06,7.11-5.4,13.21-12.92,13.21-.33,0-.66-.01-.99-.04-.38.03-.75.05-1.12.05-7.16,0-12.89-6.07-12.07-14.09.62-6.05,5.65-11.56,13.39-11.56m1.04,24.54c2.03-.25,4.29-.85,6.02-2.73,2.84-3.06,3.11-6.68,2.63-10.61-.79-6.46-4.32-9.75-10.76-9.75-.08,0-.16,0-.24,0-4.01.05-7.73,3.57-8.22,7.52-.27,2.14-.33,4.25.06,6.34,1.03,5.39,4.6,8.76,10.5,9.22m-1.03-24.79h0c-8.16,0-13.04,5.93-13.64,11.79-.4,3.94.73,7.61,3.2,10.34,2.34,2.59,5.58,4.02,9.12,4.02.38,0,.76-.02,1.14-.05.3.02.64.04.97.04,3.55,0,6.85-1.36,9.3-3.83,2.49-2.51,3.9-6.03,3.87-9.64-.06-7.58-5.24-12.43-13.51-12.66-.15,0-.31,0-.46,0h0Zm1.03,24.54c-5.67-.45-9.21-3.57-10.25-9.02-.35-1.82-.37-3.8-.06-6.26.48-3.91,4.14-7.26,7.97-7.3h.24c6.29,0,9.73,3.12,10.51,9.53.41,3.34.42,7.19-2.56,10.41-1.8,1.94-4.19,2.44-5.85,2.65h0Z"/>
      </g>
      <g>
        <path d="m119.3,210.98c-2,0-3.92-.44-5.7-1.32-2.58-1.26-3.98-3.73-4.16-7.32-.14-2.76-.1-5.57-.07-8.28.01-1.26.03-2.52.03-3.78,0-2.93-.1-3.1-2.73-4.3l-.52-.24h9.67l-1.01.25c-2.07.5-2.06,2.07-2.05,3.59,0,.19,0,.37,0,.55l-.03,1.94c-.07,3.82-.14,7.77.41,11.62.51,3.58,4.06,5.73,7.21,5.73.59,0,1.16-.07,1.68-.22,4.54-1.27,5.27-5.29,5.3-7.57.02-1.93.02-3.87.01-5.8,0-1.96-.01-3.92.01-5.87v-.42c.03-1.12.06-2.19-.56-2.83-.4-.42-1.04-.62-1.97-.64v-.25h7.59l-.1.19c-.21.38-.62.5-1.01.63-.47.15-.88.28-.94.79-.08.67-.07,1.37-.07,2.05v.66c0,.83,0,1.66,0,2.49-.01,2.18-.03,4.44.03,6.65.06,2.39-.51,4.83-1.75,7.47-.7,1.51-2.01,2.63-3.79,3.25-1.89.66-3.73.99-5.46.99Z"/>
        <path class="cls-1" d="m114.77,185.86c-2.43.59-2.12,2.58-2.14,4.26-.06,4.53-.26,9.08.38,13.59.52,3.71,4.15,5.84,7.33,5.84.59,0,1.17-.07,1.71-.23,3.84-1.08,5.34-4.21,5.39-7.69.05-3.89-.02-7.78.03-11.67.03-1.95.29-3.96-2.65-4.01h7.37c-.43.76-1.84.4-1.97,1.46-.11.9-.06,1.81-.06,2.72,0,3.05-.06,6.1.01,9.15.06,2.64-.64,5.07-1.73,7.41-.75,1.6-2.12,2.63-3.72,3.18-1.8.63-3.62.98-5.42.98-1.91,0-3.8-.4-5.65-1.3-2.91-1.43-3.94-4.24-4.09-7.21-.2-4.01-.04-8.04-.04-12.06,0-3-.14-3.19-2.8-4.41h8.05m2.08-.25h-11.28l1.04.48c2.58,1.18,2.65,1.3,2.66,4.18,0,1.26-.01,2.52-.03,3.79-.03,2.72-.07,5.53.07,8.29.18,3.64,1.6,6.14,4.23,7.43,1.8.88,3.74,1.33,5.76,1.33,1.75,0,3.6-.34,5.51-1,1.81-.63,3.14-1.77,3.86-3.31,1.24-2.65,1.82-5.11,1.76-7.52-.05-2.21-.04-4.47-.03-6.64,0-.83.01-1.66.01-2.49,0-.22,0-.44,0-.65,0-.67-.01-1.37.07-2.04.05-.41.34-.52.85-.68.4-.12.85-.27,1.08-.69l.21-.37h-7.8v.5c.89.01,1.5.21,1.88.6.58.6.56,1.64.53,2.74v.42c-.03,1.96-.03,3.95-.02,5.88,0,1.9.01,3.87-.01,5.8-.03,2.25-.74,6.2-5.21,7.45-.51.14-1.07.22-1.65.22-3.09,0-6.59-2.1-7.08-5.62-.54-3.84-.47-7.79-.41-11.61.01-.65.02-1.29.03-1.94,0-.18,0-.37,0-.55-.01-1.54-.02-2.99,1.95-3.47l2.02-.49h0Z"/>
      </g>
      <g>
        <path d="m219.1,210.86c-1.15,0-2.67-.09-4.18-.78-2.72-1.24-4.31-3.31-4.85-6.33-.54-3-.48-6.07-.42-9.04.03-1.49.06-3.04.02-4.55v-.19q-.09-2.82-2.73-3.94l-.56-.24h9.98l-1.03.25c-2.2.53-2.09,2.03-1.96,3.61.03.38.06.77.05,1.13l-.02,1.27c-.04,3.28-.08,6.68.04,10.01.1,2.69.97,4.57,2.65,5.75,1.58,1.1,3.17,1.66,4.73,1.66,1.19,0,2.36-.33,3.49-.97,1.94-1.11,3-2.96,3.33-5.84.48-4.2.39-8.38.3-12.42v-.52c-.01-1.69-.02-3.44-2.51-3.63v-.25h8.31l-1.12.25c-1.69.37-1.93,1.56-1.94,2.78v1.46c-.02,3.22-.04,6.55-.15,9.83-.08,2.38-.29,4.88-1.85,7.05-1.6,2.23-3.83,3.45-6.45,3.53-.4.01-.81.03-1.22.05-.64.03-1.28.06-1.92.06Z"/>
        <path class="cls-1" d="m215.29,185.91c-2.86.69-1.98,2.99-2.01,4.87-.04,3.77-.12,7.54.03,11.3.09,2.25.69,4.44,2.71,5.84,1.54,1.07,3.15,1.69,4.8,1.69,1.18,0,2.37-.31,3.56-.99,2.2-1.25,3.1-3.38,3.39-5.93.48-4.15.39-8.29.31-12.44-.04-1.82.25-4.06-2.62-4.27h7.15c-1.66.37-2.03,1.46-2.04,2.9-.02,3.76-.02,7.53-.15,11.29-.08,2.44-.31,4.87-1.83,6.98-1.57,2.19-3.74,3.4-6.35,3.47-1.04.03-2.08.11-3.13.11-1.39,0-2.77-.15-4.13-.77-2.76-1.26-4.27-3.38-4.78-6.24-.81-4.5-.26-9.05-.4-13.58-.09-3.06-.03-3.06-2.81-4.24h8.31m2.11-.25h-11.65l1.13.48q2.57,1.09,2.65,3.83v.19c.05,1.51.02,3.05-.01,4.55-.06,2.98-.12,6.05.42,9.07.55,3.06,2.16,5.16,4.92,6.42,1.54.7,3.07.79,4.24.79.64,0,1.29-.03,1.92-.06.4-.02.81-.04,1.21-.05,2.66-.08,4.92-1.31,6.55-3.58,1.58-2.2,1.79-4.72,1.87-7.12.11-3.28.13-6.61.14-9.83v-1.46c.01-1.35.33-2.32,1.85-2.66l2.24-.49h-9.44l-.02.5c2.37.18,2.38,1.79,2.39,3.51,0,.18,0,.35,0,.52.09,4.04.18,8.21-.3,12.4-.32,2.83-1.36,4.66-3.27,5.74-1.11.63-2.27.96-3.43.96-1.53,0-3.1-.55-4.66-1.64-1.65-1.15-2.5-3-2.6-5.65-.13-3.33-.08-6.73-.04-10.02l.02-1.26c0-.37-.03-.77-.05-1.14-.12-1.6-.23-2.98,1.87-3.48l2.05-.49h0Z"/>
      </g>
      <g>
        <path d="m232.94,170.65c-.36,0-.57-.21-.58-.6-.03-1.78-.77-3.36-1.49-4.9-.44-.94-.89-1.91-1.18-2.92-.08-.28-.22-.51-.34-.56-.75-.33-1.52-.37-2.1-.37-.32,0-.65.01-.97.03-.33.01-.66.03-.98.03-.23,0-.45,0-.68-.03-.26-.02-.52-.04-.76-.04-1.12,0-2.2.25-2.55,2.08-.19.99-.58,1.95-.95,2.88-.2.5-.41,1-.58,1.51-.23.67-.23,1.19-.02,1.61.23.43.7.75,1.44.97l.85.25h-8.45l-.02-.25c2.84-.39,3.58-2.45,4.36-4.64.11-.32.23-.63.35-.95,1.08-2.81,2.16-5.61,3.24-8.42,1.29-3.36,2.58-6.73,3.88-10.09.18-.47.39-.91.69-.98.06-.01.11-.02.17-.02.45,0,.59.42.71.76.03.07.05.15.08.22l2.07,5.06c1.93,4.7,3.85,9.41,5.76,14.12.85,2.1,1.73,4.27,4.6,4.52h.16s-.26.74-.26.74h-3.26c-1.06,0-2.12,0-3.17,0Zm-7.71-18.09c-.35.91-.65,1.69-.97,2.46-.89,2.12-1.33,3.47-.91,4.1.26.4.9.57,2.06.57.55,0,1.25-.04,2.2-.12.05,0,.11,0,.16,0h.19c.28,0,.46-.04.53-.15.08-.12.05-.36-.08-.71-.66-1.71-1.29-3.44-1.97-5.31l-.74-2.04c-.17.43-.32.83-.46,1.21Z"/>
        <path class="cls-1" d="m226.26,145.36c.45,0,.52.53.67.9,2.61,6.39,5.24,12.78,7.83,19.17.89,2.19,1.78,4.34,4.71,4.59-.06.16-.12.33-.18.49-1.01,0-2.02,0-3.03,0-1.11,0-2.21,0-3.32,0-.29,0-.45-.15-.45-.48-.05-2.9-1.91-5.19-2.68-7.85-.07-.24-.21-.56-.41-.64-.7-.31-1.43-.38-2.16-.38-.65,0-1.31.06-1.96.06-.22,0-.44,0-.67-.02-.27-.02-.52-.04-.77-.04-1.31,0-2.33.4-2.67,2.18-.28,1.5-1.03,2.91-1.53,4.37-.48,1.41-.02,2.29,1.51,2.74h-7.57c3.34-.46,3.87-3.25,4.81-5.66,2.38-6.17,4.74-12.34,7.12-18.51.13-.34.34-.85.6-.9.05-.01.1-.02.14-.02m-.85,14.45c.61,0,1.34-.05,2.21-.12.05,0,.1,0,.15,0,.01,0,.03,0,.04,0,.05,0,.1,0,.14,0,.67,0,.85-.27.56-1.03-.93-2.4-1.79-4.84-2.82-7.66-.63,1.63-1.06,2.81-1.55,3.97-1.6,3.81-1.61,4.85,1.26,4.85m.85-14.7c-.06,0-.13,0-.19.02-.34.07-.55.47-.78,1.05-1.27,3.29-2.53,6.57-3.79,9.86-1.11,2.88-2.21,5.77-3.33,8.65-.12.31-.23.63-.35.95-.77,2.15-1.49,4.18-4.26,4.56l.03.5h9.33l-1.69-.49c-.71-.21-1.16-.5-1.37-.91-.2-.38-.19-.88.03-1.51.17-.5.38-1.01.58-1.5.38-.93.77-1.9.96-2.9.31-1.64,1.2-1.98,2.43-1.98.24,0,.49.01.75.04.23.02.46.03.69.03.33,0,.66-.01.99-.03.32-.01.65-.03.97-.03.57,0,1.33.04,2.05.36.06.03.18.19.27.48.29,1.02.75,2,1.19,2.94.74,1.59,1.44,3.09,1.48,4.85,0,.45.27.72.7.72,1.11,0,2.22,0,3.32,0h1.51s1.51,0,1.51,0h.18l.06-.17.18-.49.11-.3-.32-.03c-2.79-.24-3.62-2.28-4.5-4.44-1.92-4.74-3.86-9.48-5.8-14.22l-2.03-4.95c-.03-.07-.05-.14-.08-.21-.12-.34-.29-.85-.83-.85h0Zm-.85,14.45c-1.11,0-1.71-.16-1.95-.52-.39-.58.04-1.9.92-3.98.33-.77.63-1.56.97-2.47.11-.28.22-.58.34-.89.22.6.43,1.18.63,1.74.67,1.85,1.3,3.59,1.96,5.3.16.42.12.55.09.59-.02.03-.1.1-.42.1-.04,0-.09,0-.13,0h0s-.05,0-.05,0c-.06,0-.12,0-.17,0-.95.08-1.65.12-2.19.12h0Z"/>
      </g>
      <g>
        <path d="m122.22,170.65c-.38,0-.61-.21-.63-.57-.1-2.05-.92-3.91-1.71-5.71-.48-1.1-.99-2.24-1.32-3.42-.45-1.58-1.11-3.14-1.74-4.65-.39-.93-.78-1.86-1.13-2.81-.21-.56-.43-.98-.94-1.42-.86,1.47-1.38,3.06-1.88,4.6-.27.82-.55,1.67-.87,2.49-.55,1.37-1.02,2.79-1.47,4.17-.41,1.25-.83,2.53-1.31,3.78-.4,1.04-.47,1.7-.23,2.2.21.44.67.77,1.42,1.01l.75.24h-8.28l-.02-.25c3.22-.62,3.98-3.1,4.71-5.49.2-.64.4-1.29.64-1.9,1.5-3.74,2.96-7.57,4.37-11.28.71-1.86,1.42-3.72,2.13-5.57.15-.38.32-.75.58-.82.06-.02.13-.03.19-.03.41,0,.57.41.69.71.94,2.32,1.84,4.55,2.74,6.78l2.81,6.96c.94,2.33,1.92,4.75,2.92,7.1.77,1.82,2.11,2.88,3.96,3.16l.14.02-.18.7h-6.32Z"/>
        <path class="cls-1" d="m115.46,145.35c.36,0,.49.42.61.72,1.61,3.96,3.2,7.93,4.81,11.89,1.2,2.96,2.38,5.93,3.64,8.87.74,1.74,2.03,2.93,4.05,3.24-.04.16-.08.31-.12.47-1,0-1.99,0-2.99,0-1.08,0-2.15,0-3.23,0-.28,0-.49-.13-.51-.45-.16-3.33-2.15-6.06-3.03-9.16-.73-2.55-1.95-4.96-2.88-7.46-.21-.57-.45-1.05-1.09-1.57-1.38,2.3-1.89,4.86-2.84,7.23-1.04,2.6-1.77,5.33-2.78,7.95-.61,1.58-.67,2.75,1.26,3.38h-7.5c4.16-.81,4.28-4.56,5.45-7.47,2.24-5.59,4.34-11.24,6.5-16.86.11-.28.28-.68.5-.74.06-.02.11-.02.15-.02m0-.25c-.07,0-.15.01-.22.03-.32.09-.51.48-.67.89-.72,1.86-1.43,3.72-2.14,5.59-1.41,3.7-2.87,7.53-4.37,11.27-.25.62-.45,1.28-.65,1.91-.76,2.47-1.47,4.79-4.62,5.4l.05.5h9.07l-1.49-.49c-.71-.23-1.15-.54-1.34-.95-.22-.47-.15-1.1.24-2.1.48-1.25.91-2.54,1.32-3.78.45-1.38.92-2.8,1.47-4.16.33-.82.61-1.67.88-2.49.49-1.49.99-3.02,1.8-4.44.41.39.61.76.79,1.27.35.95.75,1.9,1.14,2.82.63,1.5,1.28,3.05,1.73,4.63.34,1.19.84,2.33,1.33,3.44.79,1.79,1.6,3.64,1.7,5.67.02.42.31.69.76.69,1.08,0,2.15,0,3.23,0h1.49s1.49,0,1.49,0h.19l.05-.19.04-.15.08-.31.07-.27-.27-.04c-1.81-.27-3.11-1.31-3.86-3.09-1-2.35-1.98-4.76-2.92-7.09l-.72-1.77c-.69-1.71-1.39-3.43-2.08-5.14-.91-2.25-1.81-4.5-2.73-6.74l-.04-.09c-.12-.31-.31-.79-.8-.79h0Z"/>
      </g>
      <g>
        <path d="m249.8,210.71c-.25,0-.51-.01-.78-.04-2.18-.23-4.32-.26-6.6-.28-1.46-.02-2.97-.03-4.5-.11l-.94-.05.92-.2c2.3-.5,2.25-2.02,2.2-3.63,0-.23-.01-.45-.01-.67v-4.52c-.01-3.62-.02-7.24,0-10.86,0-.22,0-.45.02-.68.04-1.1.07-2.13-.55-2.77-.43-.44-1.14-.66-2.18-.66l-.02-.25c2.44-.38,4.85-.39,7.18-.4,2.5-.01,4.86-.02,7.26-.44l.13-.02.02.13c.16,1.38,0,2.83-.52,5.01l-.13.54-.11-.54c-.63-2.98-2.3-3.23-3.95-3.23-.31,0-.61.01-.92.02-.31.01-.62.02-.93.02-.28,0-.55,0-.81-.04-.05,0-.11,0-.15,0-.25,0-.45.07-.58.21-.18.18-.27.48-.27.89v.45c0,2.19,0,4.37.02,6.56,0,.72.24,1.04.76,1.04.32-.02.55-.02.79-.02.46,0,.92.02,1.38.04.46.02.92.04,1.38.04,1.01,0,2.2-.09,3.38-.78l.14-.08.04.15c.3,1.04.13,2.02-.04,3.06-.12.68-.23,1.38-.25,2.19l-.02.71-.23-.68c-.89-2.65-2.57-2.87-4.21-2.87-.23,0-.45,0-.68,0-.23,0-.46,0-.68,0s-.45,0-.67-.02h-.13c-.32,0-.55.07-.71.24-.19.19-.28.5-.27.96.01.8,0,1.6,0,2.39-.02,1.89-.04,3.84.24,5.75.15,1.05.73,1.3,1.56,1.37.49.04.99.05,1.48.05h1.04q3.22-.01,4.35-2.86l.12-.29.12.29c.63,1.59.65,2.88.06,3.74-.5.74-1.44,1.13-2.72,1.13Z"/>
        <path class="cls-1" d="m251.81,185.27c.17,1.47-.04,2.99-.52,4.97-.63-2.95-2.28-3.33-4.07-3.33-.61,0-1.24.04-1.85.04-.27,0-.54,0-.8-.03-.06,0-.11,0-.17,0-.72,0-.97.51-.97,1.22,0,2.34,0,4.67.02,7.01,0,.6.17,1.16.89,1.16.03,0,.06,0,.09,0,.23-.01.46-.02.7-.02.92,0,1.84.09,2.76.09,1.17,0,2.32-.14,3.44-.8.48,1.66-.25,3.12-.3,5.21-.9-2.68-2.58-2.96-4.33-2.96-.45,0-.91.02-1.36.02-.22,0-.45,0-.67-.02-.05,0-.1,0-.14,0-.85,0-1.12.54-1.11,1.33.04,2.72-.16,5.44.23,8.16.16,1.1.78,1.41,1.67,1.47.49.04.98.05,1.48.05.35,0,.7,0,1.05,0q3.3,0,4.47-2.93c1.15,2.93.18,4.7-2.54,4.7-.24,0-.5-.01-.77-.04-3.62-.38-7.25-.2-11.11-.39,2.73-.59,2.29-2.61,2.29-4.43,0-5.13-.03-10.25,0-15.38.01-2.01.5-4.23-2.84-4.23,4.95-.76,9.71-.01,14.44-.84m.22-.29l-.26.05c-2.39.42-4.74.43-7.24.44-2.34.01-4.75.02-7.2.4l.04.5c1,0,1.68.2,2.09.62.58.6.55,1.61.51,2.68,0,.23-.01.45-.02.68-.02,3.61-.02,7.29,0,10.84,0,1.51,0,3.03,0,4.54,0,.22,0,.45.01.68.05,1.62.09,3.02-2.11,3.5l-1.84.4,1.88.09c1.54.08,3.05.09,4.51.11,2.27.03,4.41.05,6.59.28.28.03.55.04.8.04,1.32,0,2.3-.41,2.82-1.18.61-.9.59-2.23-.05-3.86l-.23-.59-.23.58q-1.11,2.77-4.24,2.78h-.48s-.58,0-.58,0c-.43,0-.94,0-1.46-.05-.79-.06-1.3-.29-1.44-1.26-.28-1.9-.26-3.85-.24-5.73,0-.8.02-1.6,0-2.4,0-.41.07-.71.23-.87.13-.14.34-.2.62-.2.04,0,.08,0,.12,0,.22.01.45.02.68.02s.46,0,.68,0c.23,0,.45,0,.68,0,1.66,0,3.23.21,4.09,2.79l.45,1.35.03-1.43c.02-.8.14-1.49.25-2.17.18-1.06.35-2.05.04-3.12l-.09-.31-.28.16c-1.15.68-2.32.77-3.32.77-.45,0-.92-.02-1.37-.04-.46-.02-.93-.05-1.39-.05-.24,0-.47,0-.71.02h-.08c-.31,0-.63-.11-.64-.91-.02-2.14-.02-4.28-.02-6.41v-.59c0-.32.06-.57.17-.73.11-.16.3-.24.55-.24.05,0,.09,0,.14,0,.24.02.51.04.83.04s.62-.01.93-.02c.31-.01.62-.02.92-.02,1.6,0,3.21.24,3.83,3.13l.23,1.08.26-1.07c.53-2.2.68-3.66.52-5.05l-.03-.26h0Z"/>
      </g>
      <g>
        <path d="m169.52,171.17c-1.41,0-2.86-.15-4.1-.3-.67-.08-1.18-.34-1.52-.78-.41-.53-.55-1.29-.43-2.21.07-.51.11-1.03.15-1.63.02-.29.1-1.32.1-1.32l.2.33c.25.42.46.86.66,1.29.56,1.19,1.08,2.31,2.51,2.72.82.24,1.64.36,2.51.36h0c.88,0,1.78-.12,2.76-.37,1.78-.45,3.89-3.09,3.69-5.27-.36-4.12-2.92-6.31-8.05-6.88l-1-.11,1-.14c3.8-.52,6.35-1.64,6.44-5.41.06-2.64-1.65-4.55-4.36-4.86-.28-.03-.55-.05-.81-.05-2.45,0-4.01,1.47-4.53,4.25l-.07.37-.17-.34c-.53-1.07-.5-2.09-.48-3.08,0-.28.01-.55,0-.83-.01-.55.41-.86.83-.91.71-.09,1.41-.23,2.11-.36,1.26-.24,2.55-.49,3.86-.49,1.23,0,2.34.22,3.39.68,2.31,1,3.39,2.26,3.64,4.21.28,2.22-.56,4.05-2.5,5.44-.16.11-.33.21-.51.31-.39.22-.79.44-1.1.89,1.05.13,1.87.64,2.66,1.12,1.98,1.21,3.12,3.03,3.23,5.13.12,2.29-1,4.56-3,6.09-1.92,1.47-4.18,2.15-7.12,2.15Z"/>
        <path class="cls-1" d="m170.82,145.27c1.09,0,2.2.17,3.34.67,2.01.87,3.3,2,3.57,4.11.28,2.23-.61,4.01-2.45,5.32-.56.4-1.28.59-1.75,1.4,1.13.09,1.99.62,2.83,1.14,4.44,2.72,3.92,8.16.2,11-2.17,1.66-4.58,2.13-7.05,2.13-1.35,0-2.72-.14-4.09-.3-1.52-.18-2.05-1.35-1.84-2.85.11-.77.13-1.54.22-2.57.96,1.6,1.24,3.48,3.24,4.07.86.25,1.7.36,2.54.36.93,0,1.86-.14,2.79-.38,1.9-.48,3.98-3.2,3.79-5.4-.42-4.76-3.69-6.5-8.16-6.99,3.53-.48,6.46-1.5,6.54-5.53.06-2.67-1.7-4.67-4.47-4.99-.29-.03-.56-.05-.83-.05-2.52,0-4.12,1.49-4.65,4.35-.66-1.34-.43-2.61-.46-3.86-.01-.47.33-.74.72-.79,1.99-.26,3.95-.84,5.95-.84m0-.25c-1.31,0-2.62.25-3.88.49-.69.13-1.4.27-2.1.36-.57.08-.95.49-.94,1.04,0,.27,0,.55,0,.82-.02,1-.05,2.04.49,3.14l.33.68.14-.74c.51-2.75,1.99-4.14,4.41-4.14.26,0,.52.02.8.05,2.63.31,4.3,2.17,4.25,4.74-.08,3.68-2.59,4.78-6.33,5.29l-2,.27,2,.22c5.06.56,7.59,2.71,7.94,6.77.19,2.12-1.87,4.69-3.6,5.13-.97.25-1.87.37-2.73.37s-1.66-.12-2.47-.35c-1.37-.4-1.86-1.45-2.43-2.66-.2-.43-.41-.88-.67-1.3l-.4-.66-.06.77c-.03.34-.05.65-.07.94-.04.59-.08,1.11-.15,1.61-.13.95.02,1.75.45,2.3.36.47.91.75,1.61.83,1.25.14,2.7.3,4.12.3,2.97,0,5.26-.69,7.2-2.18,2.03-1.55,3.17-3.87,3.05-6.2-.11-2.14-1.27-3.99-3.27-5.22-.77-.47-1.55-.95-2.52-1.12.27-.31.59-.5.93-.69.18-.1.36-.2.52-.32,1.95-1.4,2.83-3.32,2.55-5.56-.25-2-1.36-3.29-3.71-4.31-1.07-.46-2.19-.69-3.44-.69h0Z"/>
      </g>
      <g>
        <path d="m141.94,210.31l.89-.25c1.93-.53,2.08-1.91,2.06-3.65-.04-5.68-.08-11.72.02-17.71.01-.73-.1-1.19-.34-1.43-.19-.19-.47-.28-.89-.28-.15,0-.31.01-.49.03-.26.03-.52.04-.78.04-.24,0-.47,0-.71-.02h-.48s-.45-.02-.45-.02c-2.27,0-4,.44-5.1,2.58l-.26.52.03-.58c0-.2.02-.4.02-.6.01-.43.03-.86.08-1.29.22-1.95.65-2.43,2.19-2.43.26,0,.56.01.89.03,3.05.18,6.17.36,9.24.36s5.85-.19,8.37-.57c.16-.02.3-.04.42-.04.72,0,.83.45.85.94v.16c.05,1.28.09,2.61-.52,4.29l-.18.48-.06-.51c-.41-3.31-2.49-3.31-4.51-3.31h-1.51c-1.14,0-1.78.05-2.1.37-.39.39-.39,1.27-.38,2.86,0,1.35,0,2.7,0,4.05,0,4.21-.02,8.57.31,12.85.12,1.6.42,2.36,1.78,2.36.11,0,.23,0,.36-.02h0c.19,0,.33.09.46.17l.12.07c.07.04.09.11.12.2.01.04.11.33.11.33h-9.57Z"/>
        <path class="cls-1" d="m156.66,185.13c.53,0,.7.25.72.82.04,1.33.12,2.68-.52,4.4-.42-3.34-2.53-3.42-4.62-3.42-.1,0-.2,0-.29,0-.13,0-.27,0-.4,0-.3,0-.58,0-.83,0-2.61,0-2.62.3-2.6,3.37.03,5.64-.12,11.27.32,16.91.12,1.55.4,2.48,1.91,2.48.12,0,.24,0,.38-.02,0,0,.01,0,.02,0,.16,0,.33.14.49.23.04.02.04.11.11.3h-8.47c2.03-.56,2.17-2.07,2.15-3.77-.04-5.9-.07-11.81.02-17.71.02-1.3-.33-1.84-1.35-1.84-.15,0-.32.01-.51.04-.25.03-.51.04-.76.04-.39,0-.79-.02-1.18-.03-.15,0-.3,0-.45,0-2.1,0-4.03.35-5.21,2.65.03-.63.03-1.26.1-1.88.22-1.92.61-2.32,2.07-2.32.26,0,.55.01.89.03,3.08.18,6.17.35,9.25.35,2.8,0,5.6-.15,8.39-.57.15-.02.29-.04.4-.04m0-.25c-.13,0-.27.01-.44.04-2.51.38-5.24.57-8.35.57s-6.19-.18-9.21-.35c-.37-.02-.67-.03-.93-.03-1.61,0-2.09.52-2.32,2.54-.05.44-.06.88-.08,1.31,0,.2-.01.39-.02.59l-.06,1.16.53-1.03c1.07-2.09,2.77-2.52,4.99-2.52.15,0,.3,0,.45,0,.16,0,.32,0,.48.01.24,0,.48.02.71.02.3,0,.56-.01.79-.04.17-.02.33-.03.48-.03.38,0,.63.08.8.24.22.22.32.65.31,1.35-.09,6-.06,12.04-.02,17.71.01,1.69-.12,3.02-1.97,3.53l-1.77.49h10.66l-.12-.33c-.02-.07-.04-.12-.05-.16-.03-.1-.06-.21-.18-.27-.04-.02-.07-.04-.11-.07-.15-.09-.31-.19-.5-.19-.17.01-.29.02-.4.02-1.27,0-1.54-.69-1.66-2.25-.33-4.28-.32-8.63-.31-12.84,0-1.35,0-2.7,0-4.05,0-1.56-.01-2.42.34-2.77.29-.29.9-.34,2.01-.34.25,0,.53,0,.83,0h.4s.15,0,.15,0h.15c1.96,0,3.98,0,4.38,3.2l.13,1.02.36-.96c.63-1.7.58-3.04.54-4.33v-.16c-.02-.49-.15-1.06-.98-1.06h0Z"/>
      </g>
      <g>
        <path d="m160.72,210.32l1.12-.25c2.22-.49,2.11-2.06,2.01-3.59-.03-.38-.05-.74-.04-1.07.21-4.87.15-9.83.09-14.63l-.02-1.67c-.02-1.35-.03-2.87-2.02-3.12l.02-.25h7.64v.25c-2.35.26-2.27,1.75-2.2,3.33.01.28.03.56.03.83-.01,4.52,0,9.03,0,13.55v1.43q0,3.53,3.12,4.95l.53.24h-.57s-9.7,0-9.7,0Z"/>
        <path class="cls-1" d="m169.52,185.86c-2.91.32-2.29,2.49-2.29,4.29-.01,4.99,0,9.99,0,14.98q0,3.61,3.19,5.06h-8.55c2.91-.64,2-3.16,2.07-4.77.24-5.43.13-10.88.07-16.32-.02-1.38-.05-2.98-2.13-3.24h7.64m0-.25h-7.64l-.03.5c1.88.23,1.89,1.64,1.91,3l.02,1.69c.06,4.79.12,9.75-.09,14.61-.01.34.01.7.04,1.08.1,1.47.21,2.99-1.91,3.46l-2.25.49h12l-1.05-.48q-3.04-1.38-3.05-4.83v-1.26c0-4.57,0-9.15,0-13.72,0-.27-.01-.56-.03-.84-.08-1.59-.14-2.95,2.1-3.2l-.03-.5h0Z"/>
      </g>
      <g>
        <path d="m91.43,170.59l.77-.24c2.13-.67,2.15-2.39,2.18-4.05,0-.26,0-.53.02-.78.28-5.55.29-11.03,0-16.29-.08-1.53-.29-2.81-2.07-2.99v-.25h7.43v.25c-1.76.2-1.89,1.39-1.88,2.92.04,3.91.03,7.82.02,11.73v4.98q0,3.3,2.96,4.48l.61.24h-.65s-9.4,0-9.4,0Z"/>
        <path class="cls-1" d="m99.77,146.11c-1.89.21-2.02,1.51-2,3.05.05,5.57.02,11.14.02,16.71q0,3.39,3.04,4.6h-8.59c2.57-.81,2.19-3.13,2.29-4.94.28-5.43.29-10.87,0-16.3-.07-1.4-.22-2.91-2.18-3.11h7.42m0-.25h-7.42l-.03.5c1.69.18,1.88,1.36,1.96,2.88.28,5.26.27,10.73,0,16.28-.01.25-.02.51-.02.78-.02,1.62-.05,3.29-2.09,3.93l-1.55.49h11.52l-1.22-.48q-2.88-1.14-2.88-4.36c0-1.65,0-3.3,0-4.96,0-3.85.01-7.84-.02-11.76-.01-1.52.11-2.61,1.78-2.8l-.03-.5h0Z"/>
      </g>
    </g>
  </g>
</svg>