<?xml version="1.0" encoding="UTF-8"?>
<svg id="Layer_2" data-name="Layer 2" xmlns="http://www.w3.org/2000/svg" viewBox="0 0 300.8 310.96">
  <g id="Layer_1-2" data-name="Layer 1">
    <g>
      <path d="m146.31,310.96c-3.14-.41-6.32-.43-9.47-.71-3.28-.3-6.53-.81-9.78-1.25-3.81-.52-7.62-1.09-11.38-1.94-4.82-1.1-9.57-2.44-14.19-4.16-5.82-2.17-11.44-4.77-16.82-7.9-6.62-3.86-12.94-8.14-18.61-13.29-3.53-3.21-7.68-5.53-11.48-8.35-7.11-5.27-13.84-10.92-19.95-17.38-6.27-6.63-11.8-13.78-16.58-21.53-4.18-6.78-7.45-13.99-10.23-21.44-2.08-5.57-3.73-11.29-4.89-17.09-.96-4.82-1.68-9.73-2.23-14.65-.38-3.41.2-6.86-.69-10.21v-7.01c.62-.66.33-1.48.34-2.22.06-6.85,1.03-13.58,2.29-20.32,1.54-8.23,4.17-16.09,7.58-23.67,3.01-6.67,6.78-12.92,11.12-18.85,5.06-6.91,11.01-12.95,17.09-18.93,2.12-2.08,3.5-4.9,5.29-7.33,4.9-6.64,10.41-12.71,16.58-18.21,4.81-4.29,9.87-8.2,15.29-11.66,6.12-3.9,12.51-7.29,19.22-10.07,5.45-2.26,11.01-4.21,16.72-5.61,4.28-1.05,8.61-1.95,12.97-2.72,5.75-1.01,11.59-.86,17.31-1.88,1.39-.25,2.72-.74,4.1-1.07.47-.11,1.34-.31,1.35.21.02.73.76,1.27.49,1.89-.27.6-.94.19-1.41.13-4.49-.51-8.67.86-12.82,2.22-3.46,1.13-6.92,2.3-10.34,3.57-5.48,2.03-10.8,4.42-16.06,6.95-6.18,2.98-12.09,6.47-17.81,10.24-2.77,1.83-5.6,3.63-8.42,6.3,2.88-.5,4.99-1.66,7.17-2.54,3.74-1.51,7.52-2.88,11.35-4.1,4.08-1.31,8.19-2.56,12.32-3.69,2.28-.63,4.64-.96,6.96-1.43.36-.07.83-.31.97.22.19.7-.55.68-.87.77-1.79.47-3.61.85-5.41,1.26-4.87,1.1-9.67,2.5-14.39,4.11-5.26,1.79-10.36,4.08-15.59,5.93-7.01,2.48-12.19,7.14-17.17,12.28-6.37,6.59-12.04,13.73-16.84,21.54-4.52,7.35-8.29,15.04-11.23,23.17-2.69,7.44-4.8,15.05-6.02,22.83-1.02,6.47-1.91,12.98-2.23,19.57-.26,5.45-.36,10.9-.21,16.34.17,6.04.71,12.06,1.72,18.05.76,4.54,1.47,9.09,2.58,13.54,1.23,4.94,2.61,9.86,4.43,14.63,2,5.26,4.21,10.43,6.81,15.43,3.39,6.54,7.24,12.77,11.66,18.68,4.7,6.27,9.73,12.24,15.67,17.36,5.87,5.06,11.59,10.32,18.02,14.7,8.06,5.48,16.59,10.03,25.78,13.41,5.61,2.07,11.34,3.63,17.16,4.85,3.51.74,7.09,1.3,10.73,1.34,2.84.03,5.69.67,8.52.59,6.32-.18,12.62-.58,18.9-1.67,6.22-1.08,12.34-2.47,18.29-4.49,6.83-2.32,13.48-5.13,19.88-8.52,6.15-3.26,12.12-6.76,17.78-10.8,8.16-5.84,15.58-12.47,22.1-20.13,4.94-5.8,9.27-11.98,13-18.59,3.03-5.36,5.59-10.98,7.66-16.79,2.44-6.88,4.23-13.9,5.64-21.09,1.92-9.78,2.41-19.6,2.16-29.48-.19-7.46-1.47-14.81-3.66-21.98-3.07-10.06-7.9-19.18-14.24-27.55-.94-1.24-2.25-1.77-3.54-2.1-4.64-1.19-9.13-2.95-13.88-3.77-1.38-.24-2.66-.95-4.16-.77-1.01.12-1.27.36-.8,1.32.9,1.81,2.13,3.38,3.43,4.9,1.06,1.25,2.17,2.46,3.16,3.8-3.99-2.19-7.92-4.44-10.92-7.94-.95-1.1-1.68-2.34-1.16-3.87.55-1.63,2.12-2.06,3.5-2.41,3.51-.89,6.95.03,10.17,1.26,3.62,1.38,7.03,3.29,10.3,5.48-1.57-2.18-3.55-3.95-5.56-5.7-4.51-3.93-9.62-6.84-15.18-9-1.57-.61-3.24-.53-4.77-.13-5.86,1.53-10.93,4.64-15.73,8.21-1.78,1.33-3.51,2.73-5.67,4.41.95-2.8,2.42-4.66,4.1-6.32,3.46-3.4,7.67-5.54,12.33-6.81.44-.12.86-.25,1.24-.49.2-.12.45-.36.45-.55,0-.36-.33-.55-.67-.55-3.63-.03-7.17-.9-10.77-1.22-1.42-.13-2.19.74-3.08,1.63-3.13,3.18-7.04,5.27-10.77,7.77-.35-1.25.21-2.06.92-3.15-2.96.3-5.03,2.03-7.49,2.86,3.01-3.71,7.5-5.22,11.39-7.9-1.41.37-2.84.69-4.22,1.14-1.47.47-2.91,1.03-4.34,1.63-1.4.58-2.76,1.25-4.46,2.03.63-2.06,2.36-2.21,3.57-2.97.37-.23.89-.2,1.28-.41.32-.17.73-.49.57-.9-.09-.23-.5-.45-.79-.47-1.49-.14-2.97-.03-4.71.4.97-1.66,2.63-2.09,3.79-3.33-1.17-.78-2.7-.5-3.69-1.44-.31-.3-.97-.44-.82-.96.16-.54.78-.6,1.31-.63.13,0,.28-.02.39.03,3.79,2.05,7.76.05,11.62.48,2.19.24,4.58.29,6.36,1.37,4.08,2.48,8.62,2.16,12.98,2.88,5.92.98,11.64,2.49,16.93,5.44,10.58,5.91,18.19,14.72,24.35,24.91,3.14,5.2,5.58,10.74,7.52,16.53,1.63,4.87,2.96,9.8,3.64,14.84.98,7.31,1.35,14.69.67,22.07-.24,2.57-.15,5.15-.44,7.74-.57,5.05-1.34,10.04-2.46,15-1.01,4.5-2.25,8.93-3.71,13.31-2.5,7.52-5.78,14.67-9.7,21.55-4.12,7.24-9.04,13.93-14.69,20.03-7.2,7.77-15.27,14.56-24.2,20.33-7,4.52-14.23,8.6-21.87,11.9-6.8,2.94-13.72,5.54-21.01,7.12-3.32.72-6.57,1.7-9.98,1.99-.22.02-.42.23-.76.42,1.52.66,2.8-.09,4.09-.19,5.97-.46,11.89-1.49,17.72-2.75,7.81-1.68,15.51-3.83,23-6.75,6.28-2.45,12.4-5.16,18.3-8.41,3.75-2.07,6.78-5.04,9.95-7.82,8.15-7.14,15.19-15.32,21.45-24.12,6.53-9.18,12.15-18.95,16.76-29.24.97-2.16,1.08-4.75,1.37-7.16,1.45-11.98,1.9-24.02,1.54-36.05-.22-7.37-.33-14.75-1.08-22.1-.59-5.76-1.27-11.54-2.86-17.09-2.66-9.26-6.53-18.04-11.59-26.3-4.31-7.04-9.17-13.67-14.71-19.77-3.4-3.74-7.01-7.32-10.85-10.65-1.44-1.25-3.1-1.86-4.8-2.26-4.87-1.15-9.74-2.43-14.69-3.04-6.33-.78-12.72-1.56-19.13-.28,4.69-2.73,9.82-3.49,15.12-3.3,5.31.19,10.38,1.65,15.43,3.35,0-1.16-1.04-.93-1.57-1.32-.57-.42-1.2-.76-1.76-1.19-6.8-5.19-14.59-8.16-22.78-10.35-7.4-1.99-14.84-2.73-22.44-1.93-.39.04-.79.07-1.17.01-3.18-.47-5.83.64-8.2,2.66-1.49,1.27-3.27,2.03-5.08,2.67-2.17.76-3.95,1.99-4.96,4.04-1.33,2.69-3.56,3.55-6.32,3.54-1.46,0-2.96.19-4.44-.61,1.66-2.38,4.06-3.53,7.05-4.4-3.58-1.35-6.6-.59-9.84.9,1.59-4.25,5.37-3.27,8.48-4.33-2.71-1.22-5.11-2.59-7.84-.61-.18-1.77.7-2.89,2.79-2.93,2.64-.05,5.3-.32,7.95.23,2.59.54,4.88-.84,7.28-1.44,1.56-.39,3.11-.75,4.72-.8,4.93-.16,9.86-.31,14.8-.47.24,0,.53.09.74-.38-2.25-1.9-5.3-2.78-7.57-5.57,1.86.97,3.35,1.61,4.69,2.48,4.11,2.66,8.77,3.46,13.45,4.36,6.18,1.18,12.19,2.95,17.91,5.63.16.07.36.05,1,.13-6.02-5.39-11.22-10.91-12.57-18.9,2.15,3.58,4.41,7.04,7.23,10.18,3.44,3.82,7.12,7.36,11.03,10.66,4.76,4.02,9.89,7.57,14.86,11.33,4.97,3.76,9.23,8.36,13.38,13.06,4.79,5.42,9.11,11.17,12.95,17.26,4.04,6.41,7.35,13.2,10,20.33,2.01,5.42,3.27,11.02,4.45,16.64.61,2.88.7,5.88.94,8.83.91,11.37,1.45,22.77,1.07,34.17-.24,7.03.01,14.11-1.36,21.08-.13.67-.02,1.4-.02,2.43,1.26-1.35,1.36-2.9,1.76-4.17,2.07-6.6,3.44-13.36,4.57-20.2,1.09-6.62,1.28-13.27,1.24-19.91-.03-6.38-.25-12.76-1.17-19.13-1-6.93-2.14-13.82-3.81-20.59-1.19-4.81-2.71-9.58-4.32-14.3-1.55-4.55-3.21-9.05-5.02-13.48-2.1-5.15-4.47-10.22-7.2-15.09-3.44-6.14-7.84-11.6-12.37-16.95-1.37-1.61-2.95-3.01-4.8-4.14,2.07-.57,3.39.75,4.52,2.01,6.31,7.02,11.94,14.53,16.04,23.1,3.25,6.79,6.19,13.69,8.71,20.8,1.73,4.88,3.28,9.81,4.69,14.78,2,7.07,3.45,14.28,4.45,21.55.83,6.06,1.29,12.16,1.33,18.31.02,3.82-.12,7.64-.13,11.45-.02,6.07-.95,12.05-2.15,18-1.14,5.66-2.51,11.24-4.36,16.71-2.77,8.17-6.59,15.86-10.79,23.36-4.71,8.4-10.11,16.36-16.2,23.84-3.71,4.56-7.66,8.89-11.93,12.93-.24.23-.78.31-.47,1.04,2.83-1.94,5.37-4.16,7.89-6.38,6.05-5.31,11.46-11.25,16.17-17.76,4.43-6.13,8.27-12.61,11.45-19.51,2.08-4.51,3.89-9.12,5.62-13.76,1.43-3.83,2.55-7.78,3.68-11.71,1.32-4.61,2.73-9.21,3.66-13.9.97-4.84,1.98-9.67,2.7-14.57.81-5.49,1.11-11.02,1.73-16.52.39-3.46.13-7,.15-10.51.03-7.19-.85-14.28-1.81-21.4-.59-4.41-1.56-8.73-2.65-12.98-1.61-6.32-3.85-12.47-6.59-18.43-2.53-5.5-5.26-10.86-8.83-15.76-4.56-6.26-9.19-12.46-15.57-17.1-6.1-4.45-12.77-7.28-20.34-8.08-1.95-.21-3.39-.14-4.9,1.24-1.8,1.66-4.07,1.53-6.23.16-1.27-.8-2.35-1.74-3.43-3.4,1.76.83,3.15,1.37,4.59,1.81,1.02.31,1.88.21,2.36-.71.49-.93-.5-1.4-1.03-1.85-.72-.6-1.61-1-2.45-1.49,1.56-.69,4.59-.6,5.83.76,1.79,1.97,4.01,2.23,6.29,2.37,7.53.46,13.94,3.59,19.83,8.04.09.07.24.05.38.08.35-.61-.16-.99-.44-1.34-5.19-6.49-10.62-12.76-16.77-18.36-3.77-3.43-8.28-5.65-13.21-6.89-5.58-1.41-11.25-2.23-17.02-2.18-4.17.04-7.93.99-10.98,4.21-3.88,4.09-9,4.59-14.17,3.82-2.49-.37-5.15-.52-7.54-2.04,1.89-2.27,4.36-3.79,7.18-4.75,4.71-1.6,9.5-2.37,14.45-1.19,1.16.28,2.09-.66,3.18-.74,3.93-.31,7.86-.88,11.81-.73,5.69.21,11.31.79,16.54,3.33.12.06.34-.08.73-.18-4.15-2.95-8.29-5.6-12.67-7.86-6.08-3.14-12.43-5.52-18.96-7.6-5.33-1.7-10.64-2.01-16.06-1.78-2.22.09-4.45.68-6.61,1.27-2.44.66-3.22,2.79-4.01,4.95-1.47,4-3.64,7.52-7.65,9.54-2.01,1.01-4.05,1.16-6.35.39,2.85-1.52,6.19-2.25,7.66-5.54-2.14,1.17-4.27,2.27-6.89,1.7.15-.16.25-.31.39-.4.65-.43,2.07-.47,1.76-1.37-.3-.88-1.55-.41-2.41-.23-1.56.32-2.56,1.36-3.45,2.72-.07-.12-.18-.22-.17-.3.45-1.89-.46-2.82-2.19-3.37-1.1-.35-2.02-1.07-2.09-2.58,5.2,1.59,10.29,2.76,15.05-1.02-3.57-.3-7.03,1.89-10.83.66.68-1.17,1.84-.79,2.6-1.29.6-.39,1.42-.73,1.25-1.51-.12-.58-.95-.5-1.54-.55-2.49-.22-4.98-.98-7.52.09.52-1.72,1.13-2.05,3.91-3.45,1.76-.88,3.59-.12,5.32-.68-1.51-2.68-3.03-2.86-8-.94.36-1.61,1.74-2.99,3.49-3.47,2.92-.81,5.76-.32,8.53.62,1.81.62,3.59,1.36,5.19,2.43,1.16.78,2.41.86,3.72.76,6.16-.48,12.32-.59,18.48,0,.32.03.64,0,1.27,0-4.2-5.64-8.97-10.72-9.88-17.92,1.28,2.01,2.51,4.05,3.86,6.01,3.09,4.48,6.37,8.79,10.93,11.95,1.62,1.12,3.48,1.69,5.29,2.25,10.91,3.35,21.17,8.08,30.76,14.26.57.37,1.04.89,1.76,1.23-3.48-6.27-6.83-12.57-7.64-20.3,2.44,4.39,4.64,8.4,6.87,12.38,3.76,6.72,7.37,13.56,11.94,19.75,2.85,3.88,6.57,7.11,9.78,10.73,4.26,4.82,8.21,9.9,11.89,15.17.94,1.35,1.91,2.68,3.14,4.41.06-2.53-.66-4.43-1.03-6.38-.9-4.72-2.02-9.41-3.76-13.86-1.43-3.63-4.55-6.18-7.26-8.9-2.73-2.73-5.59-5.35-8.42-8.04.89-.78,1.29-.44,1.62-.2,5.41,3.94,10.72,7.98,15.1,13.12,4.05,4.75,5.73,10.43,7.01,16.36.69,3.19,1.34,6.39,1.77,9.62.3,2.23.59,4.47.8,6.69.22,2.43,1.81,4.07,2.75,6.05,3.21,6.71,5.97,13.57,8.1,20.71,1.84,6.14,3.13,12.41,3.99,18.71,1.37,10.07,1.58,20.21.99,30.4-.37,6.52-1.2,12.97-2.16,19.39-.92,6.19-2.45,12.3-4.04,18.38-2.59,9.86-5.67,19.56-9.63,28.94-4.24,10.04-9.86,19.36-16.8,27.8-4.36,5.3-9.11,10.26-14.43,14.67-5.41,4.48-11.26,8.28-17.09,12.16-4.37,2.91-8.54,6.12-13.05,8.82-5.79,3.46-11.85,6.37-18.1,8.91-5.71,2.32-11.59,4.15-17.55,5.64-4.65,1.17-9.42,1.9-14.19,2.61-4.48.67-9,.88-13.48,1.52h-13.66Zm-8.29-8.72c-1.52-1.32-3.35-.88-5.01-1.26-4.05-.93-8.1-1.86-12.06-3.12-5.13-1.63-10.1-3.65-14.96-5.97-6.15-2.95-11.97-6.42-17.53-10.36-4.52-3.2-8.51-7.04-12.83-10.46-6.38-5.05-11.93-10.9-16.97-17.21-5.18-6.48-9.69-13.4-13.59-20.77-4.01-7.57-7.3-15.42-9.82-23.56-1.96-6.34-3.4-12.82-4.52-19.39-1.22-7.15-1.91-14.32-2.14-21.54-.16-5.12-.03-10.23.27-15.36.39-6.64,1.04-13.25,2.15-19.79,1.12-6.61,2.76-13.13,4.82-19.54,2.6-8.1,5.97-15.84,10.18-23.2,6.31-11.03,14.15-20.9,23.4-29.65.25-.24.85-.4.52-1.05-1.07.56-2.09,1.08-3.1,1.63-8.04,4.4-15.61,9.52-22.77,15.23-1.81,1.45-3.81,2.77-5.09,4.88-3.97,6.54-7.42,13.34-10.64,20.28-2.87,6.18-5.39,12.5-7.52,18.94-1.9,5.76-3.58,11.63-4.67,17.62-.73,4.03-1.72,8.03-2.08,12.12-.35,4.05-.65,8.11-1,12.16-.52,6.12-.13,12.22.37,18.26.44,5.26,1.19,10.55,2.46,15.76,1.14,4.66,2.23,9.34,3.82,13.84,2.94,8.33,7.17,16.11,11.35,23.87,3.72,6.9,7.83,13.57,12.38,19.96,3.65,5.12,7.52,10.06,11.69,14.73,2.5,2.81,5,5.71,8.05,7.98,3.86,2.87,8.18,5,12.43,7.22,5.62,2.93,11.43,5.42,17.35,7.7,7.07,2.72,14.31,4.94,21.66,6.65,5.81,1.35,11.76,2.15,17.67,3.08,1.88.29,3.84.06,5.73.33ZM35.71,84.58c-2.41,1.86-4.35,4.16-6.35,6.4-5.16,5.76-9.69,11.96-13.58,18.67-3.14,5.41-5.61,11.1-7.92,16.87-1.71,4.28-2.83,8.78-3.84,13.25-.9,3.98-1.4,8.09-1.84,12.18-.69,6.26-1.04,12.52-.84,18.79.14,4.57.32,9.15.89,13.73.49,3.93,1.01,7.88,1.87,11.71,1.2,5.33,2.62,10.62,4.53,15.77,1.75,4.73,3.63,9.43,5.96,13.87,3.9,7.44,8.5,14.45,13.79,21.04,6.9,8.59,14.87,16.01,23.49,22.79,1.28,1.01,2.68,1.86,4.03,2.79-1.17-1.79-2.61-3.24-3.94-4.79-4.02-4.68-7.81-9.55-11.29-14.63-7.53-11-13.59-22.84-19.19-34.9-2.92-6.28-4.73-12.93-6.38-19.67-1.49-6.08-2.33-12.25-2.87-18.42-.73-8.31-.61-16.69.28-25.03.79-7.41,1.95-14.75,3.74-21.99,1.13-4.59,2.53-9.08,3.98-13.58,1.73-5.38,3.82-10.6,6.06-15.78,2.82-6.51,6.04-12.82,9.42-19.1Zm35.01,199.46c1.86,1.44,3.67,2.96,5.6,4.3,5.62,3.89,11.45,7.43,17.69,10.26,6.03,2.73,12.2,5.04,18.66,6.57,4.25,1,8.52,1.84,12.85,2.53,4.98.79,9.98,1.3,14.98,1.62,6.59.42,13.22.41,19.85.15,4.8-.19,9.55-.75,14.28-1.37,6.09-.79,12.1-2.22,18.02-3.96,9.69-2.85,18.97-6.7,27.74-11.73.73-.42,1.47-.82,2.17-1.28.64-.42,1.45-.65,1.72-1.11-51.97,19.81-103.19,19.57-153.54-5.98ZM132.28,24.69c-17.96,1.77-34.75,7.1-50.63,15.7-12.82,6.93-33.91,25.9-38.84,35.9.22-.07.42-.08.55-.19,6.43-5.44,13.51-9.93,20.73-14.24,4.13-2.46,8.74-4.07,12.53-7.1,2.01-1.61,3.92-3.36,6.02-4.84,6.9-4.84,13.98-9.38,21.53-13.17,7.97-4,16.05-7.66,24.58-10.33,1.2-.38,2.61-.58,3.53-1.73Z"/>
      <path d="m196.44,207.42c8.74,4.34,17.1,9.89,27.85,5.93-1.18,1.2-3.73,2.14-5.65,2.51-7.48,1.45-14.07-.98-20.41-4.56-1.05-.59-2.18-1.08-3.16-1.78-1.04-.74-1.93-.63-3.07-.23-5.5,1.93-13.14-.94-15.57-5.75-3.19-6.31-1.54-13.69,4.05-17.27,6.51-4.17,15.4-2.71,19.47,3.04,2.97,4.19,3.34,8.61-.14,14.27-.89,1.45-2.32,2.37-3.37,3.84Zm1.79-10.23c.26-6.79-4.56-12.5-11.31-11.78-3.97.43-6.66,2.77-7.73,5.98-1.4,4.22-.95,8.37,1.38,12.16,2.92,4.74,9.44,6.87,14.29,2.76,2.68-2.27,3.43-5.43,3.37-9.12Z"/>
      <path d="m50.16,209.02c2.38-.39,2.55-2.04,2.54-3.9-.04-6.69-.03-13.37-.02-20.06,0-2.18.54-4.65-3.08-4.77,3.92-.12,7.62-.47,11.33-.03,5.68.67,6.92,6.24,3.91,10.47-.26.36-.54.74-.89,1.01-.87.69-.86.99.22,1.58,4.24,2.32,5.83,4.62,5.23,9.52-.32,2.6-2.11,4.43-4.38,5.54-2.48,1.21-5.16,1.59-7.93,1.02-2.25-.46-4.53-.03-6.93-.37Zm8.17-14.99c-.73.37-2.52-.95-2.54,1.29-.04,3.63-.06,7.25.37,10.87.06.54.11,1,.67,1.27,3.35,1.63,7.77.9,9.07-2.85.7-2.03.03-3.71-.43-5.46-.64-2.41-3.7-5.57-7.13-5.11Zm-2.56-7.15c0,.91,0,1.81,0,2.72,0,3,.88,3.73,3.85,3.19,2.33-.42,3.43-1.61,3.61-4.04.07-.9.05-1.81,0-2.71-.17-2.87-2.53-4.96-5.39-4.91-1.42.02-2.2.48-2.08,2.06.09,1.22.02,2.46.02,3.69Z"/>
      <path d="m136.65,164.24c2.74-3.24,5.47-6.49,8.23-9.71,2.71-3.17,5.45-6.31,8.2-9.46.33-.38.72-.93,1.26-.76.69.22.53.94.54,1.51.13,6.15.28,12.31.37,18.46.05,3.6.02,3.6,3.15,5.09h-9c1.83-.46,2.11-1.85,2.2-3.46.3-5.43.17-10.85.2-16.83-2.84,3.34-5.32,6.29-7.83,9.22-3.05,3.56-6.11,7.12-9.19,10.66-.35.4-.65,1.11-1.38.83-.72-.28-.47-.99-.47-1.53,0-5.64.03-11.29.02-16.93,0-1.35-.18-2.71-.25-4.06-.08-1.51-1.05-2.04-2.37-2.27h7.72c-1.88.3-1.91,1.66-1.9,3.15.04,5.3.02,10.59.02,15.89.16.06.33.13.49.19Z"/>
      <path d="m202.77,169.35c1.61-.51,1.97-1.7,2.14-3.17.29-2.65.29-5.3.35-7.95.03-1.12-.23-1.66-1.48-1.64-3.9.05-7.79.04-11.69,0-1.14-.01-1.65.33-1.6,1.55.14,2.98.23,5.96.28,8.94.02.96.5,1.41,1.33,1.64.53.15,1.06.27,1.54.68h-8.59c2.41-.62,1.95-2.72,2.06-4.36.37-5.63.24-11.28.05-16.91-.05-1.57-.31-3.19-2.56-3.09h7.92c-1.61.19-1.85,1.28-1.85,2.64,0,1.94-.12,3.88-.17,5.82-.03,1.09.38,1.64,1.61,1.63,3.83-.05,7.66-.02,11.5,0,1.15,0,1.68-.47,1.63-1.63-.07-1.68-.11-3.37-.14-5.05-.03-1.76-.45-3.21-2.58-3.42h7.71c-1.63.37-1.93,1.51-1.92,3.02.06,5.58.02,11.16.02,16.74q0,3.32,3.32,4.58h-8.88Z"/>
      <path d="m82.16,144.69c-.49-2.47-2.11-3.04-4.3-2.89-1.55.11-3.12.08-4.67,0-1.28-.06-1.88.27-1.83,1.71.1,2.46.09,4.93,0,7.39-.05,1.38.49,1.78,1.82,1.79,2.75.02,5.44.03,8.03,1.51,3.57,2.04,4.13,5.15,3.84,8.73-.2,2.44-3.05,5.38-5.77,6.21-2.15.66-4.29.8-6.52.47-1.15-.17-2.33-.1-3.5-.12-1.15-.02-2.3,0-3.62-.15,2.91-.85,2.67-3.08,2.66-5.28-.04-6.36-.02-12.71-.02-19.07q0-3.36-2.93-4.35c.16-.58.63-.31.94-.31,5.12-.03,10.25.09,15.36-.39.96-.09,1.34.17,1.04,1.15-.36,1.15-.41,2.34-.53,3.63Zm-10.75,15.85c.07,1.48.26,3.36.21,5.23-.04,1.69.88,2.18,2.28,2.48,2.8.6,5.97-.39,6.8-2.38,2.45-5.9-.03-12.07-8.09-11.96-.98.01-1.21.55-1.21,1.37,0,1.62,0,3.24,0,5.26Z"/>
      <path d="m88.1,209.6c-7.66.67-14.05-5.61-13.19-14.04.63-6.17,5.85-11.77,13.84-11.55,7.53.21,13.2,4.44,13.27,12.41.06,7.42-5.89,13.74-13.91,13.18Zm1.23-1.06c2.03-.25,4.29-.85,6.02-2.73,2.84-3.06,3.11-6.68,2.63-10.61-.8-6.54-4.41-9.83-11-9.75-4.01.05-7.73,3.57-8.22,7.52-.27,2.14-.33,4.25.06,6.34,1.03,5.39,4.6,8.76,10.5,9.22Z"/>
      <path d="m106.47,184.79h8.05c-2.43.59-2.12,2.58-2.14,4.26-.06,4.53-.26,9.08.38,13.59.62,4.4,5.6,6.57,9.05,5.61,3.84-1.08,5.34-4.21,5.39-7.69.05-3.89-.02-7.78.03-11.67.03-1.95.29-3.96-2.65-4.01h7.37c-.43.76-1.84.4-1.97,1.46-.11.9-.06,1.81-.06,2.72,0,3.05-.06,6.1.01,9.15.06,2.64-.64,5.07-1.73,7.41-.75,1.6-2.12,2.63-3.72,3.18-3.7,1.29-7.48,1.44-11.07-.32-2.91-1.43-3.94-4.24-4.09-7.21-.2-4.01-.04-8.04-.04-12.06,0-3-.14-3.19-2.8-4.41Z"/>
      <path d="m232.35,184.9c-1.66.37-2.03,1.46-2.04,2.9-.02,3.76-.02,7.53-.15,11.29-.08,2.44-.31,4.87-1.83,6.98-1.57,2.19-3.74,3.4-6.35,3.47-2.42.07-4.88.43-7.26-.65-2.76-1.26-4.27-3.38-4.78-6.24-.81-4.5-.26-9.05-.4-13.58-.09-3.06-.03-3.06-2.81-4.24h8.31c-2.86.69-1.98,2.99-2.01,4.87-.04,3.77-.12,7.54.03,11.3.09,2.25.69,4.44,2.71,5.84,2.63,1.84,5.5,2.32,8.36.7,2.2-1.25,3.1-3.38,3.39-5.93.48-4.15.39-8.29.31-12.44-.04-1.82.25-4.06-2.62-4.27h7.15Z"/>
      <path d="m220.91,169.38h-7.57c3.34-.46,3.87-3.25,4.81-5.66,2.38-6.17,4.74-12.34,7.12-18.51.13-.34.34-.85.6-.9.57-.12.65.48.82.88,2.61,6.39,5.23,12.78,7.83,19.17.89,2.19,1.78,4.34,4.71,4.59l-.18.49c-2.12,0-4.23,0-6.35,0-.29,0-.45-.15-.45-.48-.06-2.9-1.91-5.19-2.68-7.85-.07-.24-.21-.56-.41-.64-1.55-.68-3.19-.22-4.78-.35-1.68-.14-3.04.03-3.45,2.15-.28,1.5-1.03,2.91-1.53,4.37-.48,1.41-.02,2.29,1.51,2.74Zm4.54-19.46c-.63,1.63-1.06,2.81-1.55,3.97-1.94,4.61-1.54,5.16,3.48,4.72.06,0,.13-.01.19,0,.79.04,1.02-.22.7-1.03-.93-2.4-1.79-4.84-2.82-7.66Z"/>
      <path d="m114.47,150.82c-1.38,2.3-1.89,4.86-2.84,7.23-1.04,2.6-1.77,5.33-2.78,7.95-.61,1.58-.67,2.75,1.26,3.38h-7.5c4.16-.81,4.28-4.56,5.45-7.47,2.24-5.59,4.34-11.24,6.5-16.86.11-.28.28-.68.5-.74.48-.14.62.36.76.7,1.61,3.96,3.2,7.93,4.81,11.89,1.2,2.96,2.38,5.93,3.64,8.87.74,1.74,2.03,2.93,4.05,3.24-.04.16-.08.31-.12.47-2.07,0-4.15,0-6.22,0-.28,0-.49-.13-.51-.45-.16-3.33-2.15-6.06-3.03-9.16-.73-2.55-1.95-4.96-2.88-7.46-.21-.57-.45-1.05-1.09-1.57Z"/>
      <path d="m237.12,185.04c4.95-.76,9.71-.01,14.44-.84.17,1.47-.04,2.99-.52,4.97-.94-4.42-4.17-3.07-6.72-3.32-.85-.08-1.14.45-1.14,1.21,0,2.34,0,4.67.02,7.01,0,.63.19,1.21.98,1.16,2.3-.14,4.68.57,6.9-.73.48,1.66-.25,3.12-.3,5.21-1.25-3.73-4-2.81-6.36-2.96-.96-.06-1.26.49-1.25,1.32.04,2.72-.16,5.44.23,8.16.16,1.1.78,1.41,1.67,1.47.84.07,1.69.04,2.53.04q3.3,0,4.47-2.93c1.26,3.19-.01,5.01-3.31,4.66-3.62-.38-7.25-.2-11.11-.39,2.73-.59,2.29-2.61,2.29-4.43,0-5.13-.03-10.25,0-15.38.01-2.01.5-4.23-2.84-4.23Z"/>
      <path d="m164.36,149.69c-.66-1.34-.43-2.61-.46-3.86-.01-.47.33-.74.72-.79,3.08-.41,6.07-1.57,9.29-.18,2.01.87,3.3,2,3.57,4.11.28,2.23-.61,4.01-2.45,5.32-.56.4-1.28.59-1.75,1.4,1.13.09,1.99.62,2.83,1.14,4.44,2.72,3.92,8.16.2,11-3.36,2.57-7.27,2.28-11.14,1.83-1.52-.18-2.05-1.35-1.84-2.85.11-.77.13-1.54.22-2.57.96,1.6,1.24,3.48,3.24,4.07,1.82.53,3.57.44,5.34-.01,1.9-.48,3.98-3.2,3.79-5.4-.42-4.76-3.69-6.5-8.16-6.99,3.53-.48,6.46-1.5,6.54-5.53.06-2.67-1.7-4.67-4.47-4.99-2.99-.35-4.89,1.14-5.48,4.3Z"/>
      <path d="m135.31,188.49c.03-.63.03-1.26.1-1.88.26-2.26.75-2.41,2.96-2.29,5.88.34,11.78.68,17.64-.22.85-.13,1.1.09,1.12.78.04,1.33.12,2.68-.52,4.4-.46-3.71-3.01-3.39-5.32-3.42-3.43-.04-3.45,0-3.43,3.36.03,5.64-.12,11.27.32,16.91.13,1.67.44,2.62,2.28,2.46.16-.01.35.14.51.23.04.02.04.11.11.3h-8.47c2.03-.56,2.17-2.07,2.15-3.77-.04-5.9-.07-11.81.02-17.71.02-1.5-.44-1.99-1.86-1.81-.64.08-1.3.02-1.95,0-2.27-.04-4.4.18-5.66,2.65Z"/>
      <path d="m161.63,184.79h7.64c-2.91.32-2.29,2.49-2.29,4.29-.01,4.99,0,9.99,0,14.98q0,3.61,3.19,5.06h-8.55c2.91-.64,2-3.16,2.07-4.77.24-5.43.13-10.88.07-16.32-.02-1.38-.05-2.98-2.13-3.24Z"/>
      <path d="m100.58,169.39h-8.59c2.57-.81,2.19-3.13,2.29-4.94.28-5.43.29-10.87,0-16.3-.07-1.4-.22-2.91-2.18-3.11h7.42c-1.89.21-2.02,1.51-2,3.05.05,5.57.02,11.14.02,16.71q0,3.39,3.04,4.6Z"/>
    </g>
  </g>
</svg>